<svg xmlns="http://www.w3.org/2000/svg" xmlns:xlink="http://www.w3.org/1999/xlink" width="372" zoomAndPan="magnify" viewBox="0 0 279 66" height="88" preserveAspectRatio="xMidYMid meet" version="1.0"><defs><g/><clipPath id="97953b59bd"><path d="M 0.535156 0.117188 L 66.300781 0.117188 L 66.300781 65.882812 L 0.535156 65.882812 Z M 0.535156 0.117188 " clip-rule="nonzero"/></clipPath><clipPath id="8113ff058e"><path d="M 33.417969 0.117188 C 15.257812 0.117188 0.535156 14.839844 0.535156 33 C 0.535156 51.160156 15.257812 65.882812 33.417969 65.882812 C 51.578125 65.882812 66.300781 51.160156 66.300781 33 C 66.300781 14.839844 51.578125 0.117188 33.417969 0.117188 " clip-rule="nonzero"/></clipPath><clipPath id="2aa3ec0864"><path d="M 14 29 L 42 29 L 42 56 L 14 56 Z M 14 29 " clip-rule="nonzero"/></clipPath><clipPath id="2eb993f952"><path d="M 18.222656 6.804688 L 62.234375 16.1875 L 53.007812 59.464844 L 9 50.082031 Z M 18.222656 6.804688 " clip-rule="nonzero"/></clipPath><clipPath id="89079f7b38"><path d="M 61.992188 16.132812 L 17.984375 6.753906 L 8.757812 50.03125 L 52.769531 59.414062 Z M 61.992188 16.132812 " clip-rule="nonzero"/></clipPath><clipPath id="da35544bff"><path d="M 42 34 L 57 34 L 57 47 L 42 47 Z M 42 34 " clip-rule="nonzero"/></clipPath><clipPath id="1bd4a226b9"><path d="M 18.222656 6.804688 L 62.234375 16.1875 L 53.007812 59.464844 L 9 50.082031 Z M 18.222656 6.804688 " clip-rule="nonzero"/></clipPath><clipPath id="6e62258dc2"><path d="M 61.992188 16.132812 L 17.984375 6.753906 L 8.757812 50.03125 L 52.769531 59.414062 Z M 61.992188 16.132812 " clip-rule="nonzero"/></clipPath><clipPath id="ec3d4bd1bf"><path d="M 38 19 L 53 19 L 53 34 L 38 34 Z M 38 19 " clip-rule="nonzero"/></clipPath><clipPath id="89bc570b8c"><path d="M 18.222656 6.804688 L 62.234375 16.1875 L 53.007812 59.464844 L 9 50.082031 Z M 18.222656 6.804688 " clip-rule="nonzero"/></clipPath><clipPath id="fdfefdba6c"><path d="M 61.992188 16.132812 L 17.984375 6.753906 L 8.757812 50.03125 L 52.769531 59.414062 Z M 61.992188 16.132812 " clip-rule="nonzero"/></clipPath><clipPath id="89a5cf20a2"><path d="M 28 11 L 40 11 L 40 26 L 28 26 Z M 28 11 " clip-rule="nonzero"/></clipPath><clipPath id="ad5e5e0e29"><path d="M 18.222656 6.804688 L 62.234375 16.1875 L 53.007812 59.464844 L 9 50.082031 Z M 18.222656 6.804688 " clip-rule="nonzero"/></clipPath><clipPath id="f55eb83ec6"><path d="M 61.992188 16.132812 L 17.984375 6.753906 L 8.757812 50.03125 L 52.769531 59.414062 Z M 61.992188 16.132812 " clip-rule="nonzero"/></clipPath><clipPath id="24335f0ac9"><path d="M 14 15 L 26 15 L 26 30 L 14 30 Z M 14 15 " clip-rule="nonzero"/></clipPath><clipPath id="76e8904ba8"><path d="M 18.222656 6.804688 L 62.234375 16.1875 L 53.007812 59.464844 L 9 50.082031 Z M 18.222656 6.804688 " clip-rule="nonzero"/></clipPath><clipPath id="51f4c09220"><path d="M 61.992188 16.132812 L 17.984375 6.753906 L 8.757812 50.03125 L 52.769531 59.414062 Z M 61.992188 16.132812 " clip-rule="nonzero"/></clipPath></defs><g clip-path="url(#97953b59bd)"><g clip-path="url(#8113ff058e)"><path fill="#000000" d="M 0.535156 0.117188 L 66.300781 0.117188 L 66.300781 65.882812 L 0.535156 65.882812 Z M 0.535156 0.117188 " fill-opacity="1" fill-rule="nonzero"/></g></g><g clip-path="url(#2aa3ec0864)"><g clip-path="url(#2eb993f952)"><g clip-path="url(#89079f7b38)"><path fill="#ffffff" d="M 29.210938 52.804688 C 30.558594 53.796875 31.988281 54.753906 33.582031 55.167969 C 35.199219 55.589844 37.046875 55.40625 38.308594 54.320312 C 39.507812 53.292969 40 51.691406 40.355469 50.136719 C 41.316406 45.972656 41.679688 41.457031 39.949219 37.546875 C 38.460938 34.167969 35.476562 31.546875 32.011719 30.257812 C 28.542969 28.964844 24.675781 28.96875 21.128906 30.046875 C 18.792969 30.753906 16.523438 31.976562 15.074219 33.953125 C 14.578125 34.625 14.191406 35.371094 14.089844 36.203125 C 13.878906 37.664062 14.554688 39.089844 15.375 40.316406 C 17.28125 43.160156 19.980469 45.214844 22.585938 47.375 C 24.8125 49.183594 26.910156 51.109375 29.210938 52.804688 Z M 29.210938 52.804688 " fill-opacity="1" fill-rule="nonzero"/></g></g></g><g clip-path="url(#da35544bff)"><g clip-path="url(#1bd4a226b9)"><g clip-path="url(#6e62258dc2)"><path fill="#ffffff" d="M 51.578125 46.378906 C 50.398438 46.726562 49.082031 46.773438 47.941406 46.355469 C 47.128906 46.054688 46.40625 45.550781 45.738281 45.03125 C 44.550781 44.125 43.347656 43.042969 43.058594 41.574219 C 42.871094 40.679688 43.074219 39.746094 43.40625 38.886719 C 44.8125 35.121094 48.644531 33.402344 52.515625 34.328125 C 55.695312 35.078125 57.023438 39.453125 55.996094 42.273438 C 55.277344 44.230469 53.5625 45.796875 51.578125 46.378906 Z M 51.578125 46.378906 " fill-opacity="1" fill-rule="nonzero"/></g></g></g><g clip-path="url(#ec3d4bd1bf)"><g clip-path="url(#89bc570b8c)"><g clip-path="url(#fdfefdba6c)"><path fill="#ffffff" d="M 51.101562 29.882812 C 49.332031 32.644531 45.800781 34.125 42.511719 33.648438 C 41.195312 33.46875 39.878906 32.9375 39.066406 31.910156 C 38.113281 30.730469 38 29.023438 38.414062 27.554688 C 38.851562 26.089844 39.746094 24.828125 40.703125 23.648438 C 41.863281 22.214844 43.183594 20.839844 44.855469 20.066406 C 51.175781 17.171875 53.972656 25.375 51.101562 29.882812 Z M 51.101562 29.882812 " fill-opacity="1" fill-rule="nonzero"/></g></g></g><g clip-path="url(#89a5cf20a2)"><g clip-path="url(#ad5e5e0e29)"><g clip-path="url(#f55eb83ec6)"><path fill="#ffffff" d="M 39.640625 19.207031 C 39.371094 21.40625 37.996094 23.375 36.1875 24.671875 C 35.390625 25.230469 34.464844 25.683594 33.484375 25.699219 C 32.003906 25.6875 30.699219 24.628906 29.886719 23.378906 C 28.277344 20.902344 28.136719 17.558594 29.542969 14.96875 C 30.238281 13.710938 31.304688 12.582031 32.679688 12.148438 C 36.632812 10.808594 40.082031 15.710938 39.640625 19.207031 Z M 39.640625 19.207031 " fill-opacity="1" fill-rule="nonzero"/></g></g></g><g clip-path="url(#24335f0ac9)"><g clip-path="url(#76e8904ba8)"><g clip-path="url(#51f4c09220)"><path fill="#ffffff" d="M 23.878906 27.871094 C 23.511719 28.417969 23.050781 28.925781 22.441406 29.195312 C 21.882812 29.453125 21.222656 29.488281 20.609375 29.433594 C 17.355469 29.140625 14.597656 26.042969 14.71875 22.78125 C 14.75 22.035156 14.886719 21.285156 15.085938 20.574219 C 15.441406 19.269531 15.949219 17.945312 16.953125 17.003906 C 19.335938 14.777344 22.820312 15.394531 24.242188 18.15625 C 25.769531 21.121094 25.808594 25.070312 23.878906 27.871094 Z M 23.878906 27.871094 " fill-opacity="1" fill-rule="nonzero"/></g></g></g><g fill="#000000" fill-opacity="1"><g transform="translate(69.556027, 51.545089)"><g><path d="M 2.738281 -38.953125 C 2.296875 -37.339844 2.054688 -35.828125 2.054688 -34.507812 C 2.054688 -23.117188 15.835938 -22.386719 15.835938 -13.441406 C 15.835938 -10.605469 11.828125 -8.796875 9.285156 -8.796875 L 0.78125 -8.796875 L 0.78125 0 L 12.855469 0 C 19.648438 0 27.078125 -6.0625 27.078125 -13.585938 C 27.078125 -28.054688 12.804688 -29.519531 12.855469 -36.21875 C 12.855469 -37.046875 13 -37.929688 13.441406 -38.953125 Z M 2.738281 -38.953125 "/></g></g></g><g fill="#000000" fill-opacity="1"><g transform="translate(97.317352, 51.545089)"><g><path d="M 1.171875 -38.953125 L 1.171875 -13.539062 C 1.171875 -5.621094 8.210938 0 15.984375 0 L 38.757812 0 L 38.757812 -38.953125 L 28.105469 -38.953125 L 28.105469 -8.796875 L 19.355469 -8.796875 C 15.25 -8.796875 11.828125 -12.269531 11.828125 -16.277344 L 11.828125 -38.953125 Z M 1.171875 -38.953125 "/></g></g></g><g fill="#000000" fill-opacity="1"><g transform="translate(137.541944, 51.545089)"><g><path d="M 1.464844 -38.953125 L 1.464844 8.796875 L 12.121094 8.796875 L 12.121094 -30.15625 L 19.992188 -30.15625 C 25.414062 -30.15625 30.304688 -25.808594 30.304688 -19.402344 C 30.304688 -12.367188 25.660156 -8.796875 20.234375 -8.796875 L 14.46875 -8.796875 L 14.46875 0 L 23.019531 0 C 33.53125 0 41.546875 -9.1875 41.546875 -19.402344 C 41.546875 -30.449219 33.039062 -38.953125 21.800781 -38.953125 Z M 1.464844 -38.953125 "/></g></g></g><g fill="#000000" fill-opacity="1"><g transform="translate(179.770429, 51.545089)"><g><path d="M 19.84375 -38.953125 C 9.824219 -38.953125 0.683594 -30.15625 0.683594 -19.84375 C 0.683594 -8.796875 8.652344 0 19.746094 0 L 33.726562 0 L 33.726562 -8.796875 L 22.972656 -8.796875 C 16.570312 -8.796875 11.925781 -13.539062 11.925781 -19.84375 C 11.925781 -24.925781 16.667969 -30.15625 22.972656 -30.15625 L 33.726562 -30.15625 L 33.726562 -38.953125 Z M 19.84375 -38.953125 "/></g></g></g><g fill="#000000" fill-opacity="1"><g transform="translate(214.178824, 51.545089)"><g><path d="M 15.296875 -30.15625 C 6.988281 -30.15625 0.683594 -22.875 0.683594 -15.25 C 0.683594 -7.476562 7.574219 0 15.394531 0 L 21.703125 0 L 21.703125 -8.796875 L 18.476562 -8.796875 C 14.761719 -8.796875 11.925781 -11.679688 11.925781 -15.152344 C 11.925781 -18.867188 14.710938 -21.359375 18.378906 -21.359375 L 24.046875 -21.359375 L 24.046875 0 L 34.3125 0 L 34.3125 -30.15625 Z M 15.296875 -30.15625 "/></g></g></g><g fill="#000000" fill-opacity="1"><g transform="translate(249.662483, 51.545089)"><g><path d="M 11.4375 -38.953125 L 1.171875 -38.953125 L 1.171875 -9.433594 C 1.171875 -3.910156 6.746094 0 11.4375 0 L 21.554688 0 L 21.554688 -8.796875 L 14.957031 -8.796875 C 12.757812 -8.796875 11.4375 -9.726562 11.4375 -12.023438 L 11.4375 -21.359375 L 21.554688 -21.359375 L 21.554688 -30.15625 L 11.4375 -30.15625 Z M 11.4375 -38.953125 "/></g></g></g></svg>