<svg xmlns="http://www.w3.org/2000/svg" xmlns:xlink="http://www.w3.org/1999/xlink" width="290" zoomAndPan="magnify" viewBox="0 0 217.5 70.499998" height="94" preserveAspectRatio="xMidYMid meet" version="1.0"><defs><g/><clipPath id="9d1e67631c"><path d="M 8 30 L 44 30 L 44 65 L 8 65 Z M 8 30 " clip-rule="nonzero"/></clipPath><clipPath id="686b33a9b8"><path d="M 13.34375 0.183594 L 71.746094 12.632812 L 59.453125 70.304688 L 1.050781 57.855469 Z M 13.34375 0.183594 " clip-rule="nonzero"/></clipPath><clipPath id="d89847dc2b"><path d="M 71.652344 12.613281 L 13.25 0.164062 L 0.957031 57.835938 L 59.359375 70.285156 Z M 71.652344 12.613281 " clip-rule="nonzero"/></clipPath><clipPath id="eb6e5db9d1"><path d="M 46 36 L 65 36 L 65 54 L 46 54 Z M 46 36 " clip-rule="nonzero"/></clipPath><clipPath id="2b839c1e52"><path d="M 13.34375 0.183594 L 71.746094 12.632812 L 59.453125 70.304688 L 1.050781 57.855469 Z M 13.34375 0.183594 " clip-rule="nonzero"/></clipPath><clipPath id="e3cdc6de24"><path d="M 71.652344 12.613281 L 13.25 0.164062 L 0.957031 57.835938 L 59.359375 70.285156 Z M 71.652344 12.613281 " clip-rule="nonzero"/></clipPath><clipPath id="2b08279cdf"><path d="M 40 17 L 59 17 L 59 37 L 40 37 Z M 40 17 " clip-rule="nonzero"/></clipPath><clipPath id="e4e82dac55"><path d="M 13.34375 0.183594 L 71.746094 12.632812 L 59.453125 70.304688 L 1.050781 57.855469 Z M 13.34375 0.183594 " clip-rule="nonzero"/></clipPath><clipPath id="34950b0efe"><path d="M 71.652344 12.613281 L 13.25 0.164062 L 0.957031 57.835938 L 59.359375 70.285156 Z M 71.652344 12.613281 " clip-rule="nonzero"/></clipPath><clipPath id="7ba65b104e"><path d="M 27 7 L 43 7 L 43 26 L 27 26 Z M 27 7 " clip-rule="nonzero"/></clipPath><clipPath id="2d85a633f4"><path d="M 13.34375 0.183594 L 71.746094 12.632812 L 59.453125 70.304688 L 1.050781 57.855469 Z M 13.34375 0.183594 " clip-rule="nonzero"/></clipPath><clipPath id="32722a26ee"><path d="M 71.652344 12.613281 L 13.25 0.164062 L 0.957031 57.835938 L 59.359375 70.285156 Z M 71.652344 12.613281 " clip-rule="nonzero"/></clipPath><clipPath id="8dfb073775"><path d="M 8 12 L 24 12 L 24 31 L 8 31 Z M 8 12 " clip-rule="nonzero"/></clipPath><clipPath id="ecc84bcb31"><path d="M 13.34375 0.183594 L 71.746094 12.632812 L 59.453125 70.304688 L 1.050781 57.855469 Z M 13.34375 0.183594 " clip-rule="nonzero"/></clipPath><clipPath id="6fd3055cf4"><path d="M 71.652344 12.613281 L 13.25 0.164062 L 0.957031 57.835938 L 59.359375 70.285156 Z M 71.652344 12.613281 " clip-rule="nonzero"/></clipPath></defs><g clip-path="url(#9d1e67631c)"><g clip-path="url(#686b33a9b8)"><g clip-path="url(#d89847dc2b)"><path fill="#000000" d="M 28.105469 61.507812 C 29.890625 62.828125 31.785156 64.101562 33.898438 64.652344 C 36.046875 65.210938 38.5 64.960938 40.175781 63.511719 C 41.765625 62.148438 42.421875 60.011719 42.894531 57.9375 C 44.179688 52.390625 44.660156 46.371094 42.371094 41.167969 C 40.398438 36.664062 36.441406 33.179688 31.84375 31.460938 C 27.242188 29.746094 22.109375 29.753906 17.402344 31.195312 C 14.300781 32.136719 11.285156 33.769531 9.359375 36.402344 C 8.703125 37.300781 8.1875 38.296875 8.054688 39.40625 C 7.769531 41.351562 8.667969 43.25 9.75 44.882812 C 12.277344 48.667969 15.859375 51.40625 19.3125 54.28125 C 22.265625 56.683594 25.050781 59.253906 28.105469 61.507812 Z M 28.105469 61.507812 " fill-opacity="1" fill-rule="nonzero"/></g></g></g><g clip-path="url(#eb6e5db9d1)"><g clip-path="url(#2b839c1e52)"><g clip-path="url(#e3cdc6de24)"><path fill="#000000" d="M 57.796875 52.917969 C 56.230469 53.386719 54.484375 53.449219 52.96875 52.894531 C 51.886719 52.496094 50.929688 51.824219 50.046875 51.132812 C 48.46875 49.925781 46.878906 48.484375 46.496094 46.527344 C 46.25 45.339844 46.515625 44.089844 46.957031 42.945312 C 48.828125 37.925781 53.917969 35.632812 59.054688 36.859375 C 63.273438 37.859375 65.03125 43.6875 63.664062 47.445312 C 62.707031 50.050781 60.429688 52.140625 57.796875 52.917969 Z M 57.796875 52.917969 " fill-opacity="1" fill-rule="nonzero"/></g></g></g><g clip-path="url(#2b08279cdf)"><g clip-path="url(#e4e82dac55)"><g clip-path="url(#34950b0efe)"><path fill="#000000" d="M 57.183594 30.941406 C 54.832031 34.621094 50.144531 36.601562 45.777344 35.972656 C 44.03125 35.730469 42.28125 35.023438 41.207031 33.65625 C 39.941406 32.082031 39.792969 29.8125 40.34375 27.855469 C 40.925781 25.902344 42.117188 24.21875 43.386719 22.648438 C 44.925781 20.734375 46.683594 18.902344 48.902344 17.871094 C 57.292969 14.003906 60.996094 24.929688 57.183594 30.941406 Z M 57.183594 30.941406 " fill-opacity="1" fill-rule="nonzero"/></g></g></g><g clip-path="url(#7ba65b104e)"><g clip-path="url(#2d85a633f4)"><g clip-path="url(#32722a26ee)"><path fill="#000000" d="M 41.980469 16.726562 C 41.621094 19.664062 39.796875 22.285156 37.394531 24.015625 C 36.335938 24.757812 35.109375 25.367188 33.804688 25.390625 C 31.839844 25.371094 30.105469 23.964844 29.03125 22.296875 C 26.898438 19 26.714844 14.546875 28.585938 11.097656 C 29.507812 9.417969 30.929688 7.914062 32.753906 7.335938 C 38 5.542969 42.574219 12.070312 41.980469 16.726562 Z M 41.980469 16.726562 " fill-opacity="1" fill-rule="nonzero"/></g></g></g><g clip-path="url(#8dfb073775)"><g clip-path="url(#ecc84bcb31)"><g clip-path="url(#6fd3055cf4)"><path fill="#000000" d="M 21.054688 28.292969 C 20.5625 29.023438 19.953125 29.695312 19.144531 30.058594 C 18.402344 30.402344 17.527344 30.449219 16.710938 30.375 C 12.390625 29.992188 8.738281 25.867188 8.898438 21.519531 C 8.945312 20.527344 9.125 19.527344 9.390625 18.582031 C 9.863281 16.839844 10.539062 15.078125 11.871094 13.824219 C 15.039062 10.851562 19.664062 11.671875 21.546875 15.351562 C 23.570312 19.292969 23.617188 24.554688 21.054688 28.292969 Z M 21.054688 28.292969 " fill-opacity="1" fill-rule="nonzero"/></g></g></g><g fill="#000000" fill-opacity="1"><g transform="translate(68.001523, 57.974753)"><g><path d="M 12.765625 0.46875 C 9.535156 0.46875 6.929688 -0.5 4.953125 -2.4375 C 2.972656 -4.382812 1.984375 -6.929688 1.984375 -10.078125 L 1.984375 -11.59375 C 1.984375 -11.789062 2.050781 -11.957031 2.1875 -12.09375 C 2.320312 -12.226562 2.488281 -12.296875 2.6875 -12.296875 L 7.984375 -12.296875 C 8.179688 -12.296875 8.347656 -12.226562 8.484375 -12.09375 C 8.617188 -11.957031 8.6875 -11.789062 8.6875 -11.59375 L 8.6875 -10.4375 C 8.6875 -8.914062 9.0625 -7.6875 9.8125 -6.75 C 10.570312 -5.820312 11.554688 -5.359375 12.765625 -5.359375 C 13.960938 -5.359375 14.953125 -5.796875 15.734375 -6.671875 C 16.515625 -7.546875 16.90625 -8.703125 16.90625 -10.140625 C 16.90625 -11.148438 16.691406 -12.023438 16.265625 -12.765625 C 15.835938 -13.503906 15.234375 -14.203125 14.453125 -14.859375 C 13.671875 -15.523438 12.425781 -16.476562 10.71875 -17.71875 C 8.78125 -19.113281 7.21875 -20.351562 6.03125 -21.4375 C 4.84375 -22.53125 3.847656 -23.84375 3.046875 -25.375 C 2.253906 -26.914062 1.859375 -28.695312 1.859375 -30.71875 C 1.859375 -33.9375 2.828125 -36.5 4.765625 -38.40625 C 6.710938 -40.3125 9.28125 -41.265625 12.46875 -41.265625 C 15.695312 -41.265625 18.300781 -40.265625 20.28125 -38.265625 C 22.257812 -36.265625 23.25 -33.613281 23.25 -30.3125 L 23.25 -28.90625 C 23.25 -28.707031 23.179688 -28.539062 23.046875 -28.40625 C 22.910156 -28.269531 22.75 -28.203125 22.5625 -28.203125 L 17.3125 -28.203125 C 17.113281 -28.203125 16.945312 -28.269531 16.8125 -28.40625 C 16.675781 -28.539062 16.609375 -28.707031 16.609375 -28.90625 L 16.609375 -30.421875 C 16.609375 -31.941406 16.226562 -33.15625 15.46875 -34.0625 C 14.71875 -34.976562 13.71875 -35.4375 12.46875 -35.4375 C 11.300781 -35.4375 10.347656 -35.015625 9.609375 -34.171875 C 8.878906 -33.335938 8.515625 -32.1875 8.515625 -30.71875 C 8.515625 -29.3125 8.910156 -28.125 9.703125 -27.15625 C 10.503906 -26.1875 12.066406 -24.847656 14.390625 -23.140625 C 16.765625 -21.390625 18.550781 -19.957031 19.75 -18.84375 C 20.957031 -17.738281 21.890625 -16.523438 22.546875 -15.203125 C 23.210938 -13.890625 23.546875 -12.316406 23.546875 -10.484375 C 23.546875 -7.179688 22.550781 -4.53125 20.5625 -2.53125 C 18.582031 -0.53125 15.984375 0.46875 12.765625 0.46875 Z M 12.765625 0.46875 "/></g></g></g><g fill="#000000" fill-opacity="1"><g transform="translate(93.298497, 57.974753)"><g><path d="M 13.921875 0.46875 C 10.585938 0.46875 7.914062 -0.609375 5.90625 -2.765625 C 3.90625 -4.921875 2.90625 -7.769531 2.90625 -11.3125 L 2.90625 -40.09375 C 2.90625 -40.289062 2.972656 -40.457031 3.109375 -40.59375 C 3.253906 -40.726562 3.421875 -40.796875 3.609375 -40.796875 L 8.96875 -40.796875 C 9.164062 -40.796875 9.332031 -40.726562 9.46875 -40.59375 C 9.601562 -40.457031 9.671875 -40.289062 9.671875 -40.09375 L 9.671875 -10.609375 C 9.671875 -9.054688 10.054688 -7.789062 10.828125 -6.8125 C 11.609375 -5.84375 12.640625 -5.359375 13.921875 -5.359375 C 15.210938 -5.359375 16.242188 -5.84375 17.015625 -6.8125 C 17.796875 -7.789062 18.1875 -9.054688 18.1875 -10.609375 L 18.1875 -40.09375 C 18.1875 -40.289062 18.253906 -40.457031 18.390625 -40.59375 C 18.523438 -40.726562 18.691406 -40.796875 18.890625 -40.796875 L 24.25 -40.796875 C 24.4375 -40.796875 24.597656 -40.726562 24.734375 -40.59375 C 24.867188 -40.457031 24.9375 -40.289062 24.9375 -40.09375 L 24.9375 -11.3125 C 24.9375 -7.769531 23.925781 -4.921875 21.90625 -2.765625 C 19.894531 -0.609375 17.234375 0.46875 13.921875 0.46875 Z M 13.921875 0.46875 "/></g></g></g><g fill="#000000" fill-opacity="1"><g transform="translate(121.160145, 57.974753)"><g><path d="M 14.75 -40.859375 C 16.800781 -40.859375 18.613281 -40.351562 20.1875 -39.34375 C 21.769531 -38.332031 22.992188 -36.910156 23.859375 -35.078125 C 24.734375 -33.253906 25.171875 -31.175781 25.171875 -28.84375 C 25.171875 -25.351562 24.25 -22.535156 22.40625 -20.390625 C 20.5625 -18.253906 18.125 -17.1875 15.09375 -17.1875 L 10.140625 -17.1875 C 9.941406 -17.1875 9.84375 -17.09375 9.84375 -16.90625 L 9.84375 -0.703125 C 9.84375 -0.503906 9.773438 -0.335938 9.640625 -0.203125 C 9.503906 -0.0664062 9.34375 0 9.15625 0 L 3.78125 0 C 3.59375 0 3.429688 -0.0664062 3.296875 -0.203125 C 3.160156 -0.335938 3.09375 -0.503906 3.09375 -0.703125 L 3.09375 -40.15625 C 3.09375 -40.351562 3.160156 -40.519531 3.296875 -40.65625 C 3.429688 -40.789062 3.59375 -40.859375 3.78125 -40.859375 Z M 13.640625 -22.5 C 15.078125 -22.5 16.234375 -23.050781 17.109375 -24.15625 C 17.984375 -25.257812 18.421875 -26.765625 18.421875 -28.671875 C 18.421875 -30.617188 17.984375 -32.164062 17.109375 -33.3125 C 16.234375 -34.457031 15.078125 -35.03125 13.640625 -35.03125 L 10.140625 -35.03125 C 9.941406 -35.03125 9.84375 -34.929688 9.84375 -34.734375 L 9.84375 -22.78125 C 9.84375 -22.59375 9.941406 -22.5 10.140625 -22.5 Z M 13.640625 -22.5 "/></g></g></g><g fill="#000000" fill-opacity="1"><g transform="translate(147.797749, 57.974753)"><g><path d="M 13.40625 0.46875 C 10.101562 0.46875 7.453125 -0.53125 5.453125 -2.53125 C 3.453125 -4.53125 2.453125 -7.179688 2.453125 -10.484375 L 2.453125 -30.359375 C 2.453125 -33.703125 3.453125 -36.351562 5.453125 -38.3125 C 7.453125 -40.28125 10.101562 -41.265625 13.40625 -41.265625 C 16.75 -41.265625 19.429688 -40.28125 21.453125 -38.3125 C 23.472656 -36.351562 24.484375 -33.703125 24.484375 -30.359375 L 24.484375 -29.671875 C 24.484375 -29.472656 24.410156 -29.296875 24.265625 -29.140625 C 24.128906 -28.984375 23.96875 -28.90625 23.78125 -28.90625 L 18.359375 -28.671875 C 17.890625 -28.671875 17.65625 -28.90625 17.65625 -29.375 L 17.65625 -30.828125 C 17.65625 -32.191406 17.265625 -33.300781 16.484375 -34.15625 C 15.710938 -35.007812 14.6875 -35.4375 13.40625 -35.4375 C 12.164062 -35.4375 11.15625 -35.007812 10.375 -34.15625 C 9.59375 -33.300781 9.203125 -32.191406 9.203125 -30.828125 L 9.203125 -9.96875 C 9.203125 -8.601562 9.59375 -7.492188 10.375 -6.640625 C 11.15625 -5.785156 12.164062 -5.359375 13.40625 -5.359375 C 14.6875 -5.359375 15.710938 -5.785156 16.484375 -6.640625 C 17.265625 -7.492188 17.65625 -8.601562 17.65625 -9.96875 L 17.65625 -11.421875 C 17.65625 -11.617188 17.722656 -11.785156 17.859375 -11.921875 C 17.992188 -12.054688 18.160156 -12.125 18.359375 -12.125 L 23.78125 -11.890625 C 23.96875 -11.890625 24.128906 -11.820312 24.265625 -11.6875 C 24.410156 -11.550781 24.484375 -11.382812 24.484375 -11.1875 L 24.484375 -10.484375 C 24.484375 -7.179688 23.472656 -4.53125 21.453125 -2.53125 C 19.429688 -0.53125 16.75 0.46875 13.40625 0.46875 Z M 13.40625 0.46875 "/></g></g></g><g fill="#000000" fill-opacity="1"><g transform="translate(174.435353, 57.974753)"><g><path d="M 12.828125 -30.25 C 15.890625 -30.25 18.375 -29.351562 20.28125 -27.5625 C 22.1875 -25.78125 23.140625 -23.429688 23.140625 -20.515625 L 23.140625 -0.703125 C 23.140625 -0.503906 23.070312 -0.335938 22.9375 -0.203125 C 22.800781 -0.0664062 22.632812 0 22.4375 0 L 17.078125 0 C 16.878906 0 16.710938 -0.0664062 16.578125 -0.203125 C 16.441406 -0.335938 16.375 -0.503906 16.375 -0.703125 L 16.375 -1.8125 C 16.375 -1.925781 16.332031 -2 16.25 -2.03125 C 16.175781 -2.070312 16.101562 -2.035156 16.03125 -1.921875 C 14.664062 -0.328125 12.679688 0.46875 10.078125 0.46875 C 7.867188 0.46875 5.914062 -0.160156 4.21875 -1.421875 C 2.53125 -2.691406 1.6875 -4.992188 1.6875 -8.328125 C 1.6875 -11.828125 2.707031 -14.316406 4.75 -15.796875 C 6.789062 -17.273438 9.5625 -18.015625 13.0625 -18.015625 L 16.078125 -18.015625 C 16.273438 -18.015625 16.375 -18.109375 16.375 -18.296875 L 16.375 -19.8125 C 16.375 -21.207031 16.023438 -22.320312 15.328125 -23.15625 C 14.628906 -24 13.753906 -24.421875 12.703125 -24.421875 C 11.890625 -24.421875 11.207031 -24.15625 10.65625 -23.625 C 10.113281 -23.101562 9.785156 -22.394531 9.671875 -21.5 C 9.628906 -21.039062 9.378906 -20.8125 8.921875 -20.8125 L 3.265625 -20.8125 C 2.796875 -20.8125 2.582031 -21.039062 2.625 -21.5 C 2.8125 -24.144531 3.847656 -26.265625 5.734375 -27.859375 C 7.617188 -29.453125 9.984375 -30.25 12.828125 -30.25 Z M 11.953125 -5.125 C 13.117188 -5.125 14.144531 -5.492188 15.03125 -6.234375 C 15.925781 -6.972656 16.375 -8.003906 16.375 -9.328125 L 16.375 -12.640625 C 16.375 -12.835938 16.273438 -12.9375 16.078125 -12.9375 L 13.0625 -12.9375 C 11.738281 -12.9375 10.664062 -12.578125 9.84375 -11.859375 C 9.03125 -11.140625 8.625 -10.097656 8.625 -8.734375 C 8.625 -7.535156 8.929688 -6.632812 9.546875 -6.03125 C 10.171875 -5.425781 10.972656 -5.125 11.953125 -5.125 Z M 11.953125 -5.125 "/></g></g></g><g fill="#000000" fill-opacity="1"><g transform="translate(199.732327, 57.974753)"><g><path d="M 15.15625 -25.703125 C 15.15625 -25.503906 15.085938 -25.335938 14.953125 -25.203125 C 14.816406 -25.066406 14.648438 -25 14.453125 -25 L 10.84375 -25 C 10.644531 -25 10.546875 -24.90625 10.546875 -24.71875 L 10.546875 -9.4375 C 10.546875 -8.082031 10.796875 -7.140625 11.296875 -6.609375 C 11.804688 -6.085938 12.566406 -5.847656 13.578125 -5.890625 L 13.984375 -5.890625 C 14.179688 -5.890625 14.347656 -5.820312 14.484375 -5.6875 C 14.617188 -5.550781 14.6875 -5.382812 14.6875 -5.1875 L 14.6875 -0.703125 C 14.6875 -0.503906 14.617188 -0.335938 14.484375 -0.203125 C 14.347656 -0.0664062 14.179688 0 13.984375 0 L 12 0 C 9.363281 0 7.375 -0.484375 6.03125 -1.453125 C 4.6875 -2.421875 4.015625 -4.25 4.015625 -6.9375 L 4.015625 -24.71875 C 4.015625 -24.90625 3.921875 -25 3.734375 -25 L 1.6875 -25 C 1.5 -25 1.332031 -25.066406 1.1875 -25.203125 C 1.050781 -25.335938 0.984375 -25.503906 0.984375 -25.703125 L 0.984375 -29.078125 C 0.984375 -29.273438 1.050781 -29.441406 1.1875 -29.578125 C 1.332031 -29.710938 1.5 -29.78125 1.6875 -29.78125 L 3.734375 -29.78125 C 3.921875 -29.78125 4.015625 -29.878906 4.015625 -30.078125 L 4.015625 -36.484375 C 4.015625 -36.679688 4.082031 -36.847656 4.21875 -36.984375 C 4.351562 -37.117188 4.519531 -37.1875 4.71875 -37.1875 L 9.84375 -37.1875 C 10.039062 -37.1875 10.207031 -37.117188 10.34375 -36.984375 C 10.476562 -36.847656 10.546875 -36.679688 10.546875 -36.484375 L 10.546875 -30.078125 C 10.546875 -29.878906 10.644531 -29.78125 10.84375 -29.78125 L 14.453125 -29.78125 C 14.648438 -29.78125 14.816406 -29.710938 14.953125 -29.578125 C 15.085938 -29.441406 15.15625 -29.273438 15.15625 -29.078125 Z M 15.15625 -25.703125 "/></g></g></g></svg>