<svg xmlns="http://www.w3.org/2000/svg" xmlns:xlink="http://www.w3.org/1999/xlink" width="388" zoomAndPan="magnify" viewBox="0 0 291 290.999983" height="388" preserveAspectRatio="xMidYMid meet" version="1.0"><defs><clipPath id="c709c4f337"><path d="M 0.0078125 0.0078125 L 290.992188 0.0078125 L 290.992188 290.992188 L 0.0078125 290.992188 Z M 0.0078125 0.0078125 " clip-rule="nonzero"/></clipPath><clipPath id="038694024a"><path d="M 145.5 0.0078125 C 65.148438 0.0078125 0.0078125 65.148438 0.0078125 145.5 C 0.0078125 225.851562 65.148438 290.992188 145.5 290.992188 C 225.851562 290.992188 290.992188 225.851562 290.992188 145.5 C 290.992188 65.148438 225.851562 0.0078125 145.5 0.0078125 " clip-rule="nonzero"/></clipPath><clipPath id="3d650361d9"><path d="M 61 125 L 181 125 L 181 241 L 61 241 Z M 61 125 " clip-rule="nonzero"/></clipPath><clipPath id="d5e16dd6fe"><path d="M 78.925781 26.28125 L 272.574219 67.558594 L 231.921875 258.273438 L 38.273438 216.996094 Z M 78.925781 26.28125 " clip-rule="nonzero"/></clipPath><clipPath id="72533952d4"><path d="M 272.585938 67.5625 L 78.9375 26.285156 L 38.285156 217 L 231.933594 258.277344 Z M 272.585938 67.5625 " clip-rule="nonzero"/></clipPath><clipPath id="1adaadf7d9"><path d="M 188 146 L 248 146 L 248 203 L 188 203 Z M 188 146 " clip-rule="nonzero"/></clipPath><clipPath id="4301eac7ae"><path d="M 78.925781 26.28125 L 272.574219 67.558594 L 231.921875 258.273438 L 38.273438 216.996094 Z M 78.925781 26.28125 " clip-rule="nonzero"/></clipPath><clipPath id="c717b013e0"><path d="M 272.585938 67.5625 L 78.9375 26.285156 L 38.285156 217 L 231.933594 258.277344 Z M 272.585938 67.5625 " clip-rule="nonzero"/></clipPath><clipPath id="01951aedff"><path d="M 167 82 L 230 82 L 230 146 L 167 146 Z M 167 82 " clip-rule="nonzero"/></clipPath><clipPath id="67cd4fdbfe"><path d="M 78.925781 26.28125 L 272.574219 67.558594 L 231.921875 258.273438 L 38.273438 216.996094 Z M 78.925781 26.28125 " clip-rule="nonzero"/></clipPath><clipPath id="8bc2315226"><path d="M 272.585938 67.5625 L 78.9375 26.285156 L 38.285156 217 L 231.933594 258.277344 Z M 272.585938 67.5625 " clip-rule="nonzero"/></clipPath><clipPath id="1ff427fc33"><path d="M 125 49 L 175 49 L 175 110 L 125 110 Z M 125 49 " clip-rule="nonzero"/></clipPath><clipPath id="6d6027a689"><path d="M 78.925781 26.28125 L 272.574219 67.558594 L 231.921875 258.273438 L 38.273438 216.996094 Z M 78.925781 26.28125 " clip-rule="nonzero"/></clipPath><clipPath id="4d4d464571"><path d="M 272.585938 67.5625 L 78.9375 26.285156 L 38.285156 217 L 231.933594 258.277344 Z M 272.585938 67.5625 " clip-rule="nonzero"/></clipPath><clipPath id="d3d1cdd7e9"><path d="M 64 65 L 112 65 L 112 127 L 64 127 Z M 64 65 " clip-rule="nonzero"/></clipPath><clipPath id="09313093d9"><path d="M 78.925781 26.28125 L 272.574219 67.558594 L 231.921875 258.273438 L 38.273438 216.996094 Z M 78.925781 26.28125 " clip-rule="nonzero"/></clipPath><clipPath id="a2f0f62075"><path d="M 272.585938 67.5625 L 78.9375 26.285156 L 38.285156 217 L 231.933594 258.277344 Z M 272.585938 67.5625 " clip-rule="nonzero"/></clipPath></defs><g clip-path="url(#c709c4f337)"><g clip-path="url(#038694024a)"><path fill="#000000" d="M 0.0078125 0.0078125 L 290.992188 0.0078125 L 290.992188 290.992188 L 0.0078125 290.992188 Z M 0.0078125 0.0078125 " fill-opacity="1" fill-rule="nonzero"/></g></g><g clip-path="url(#3d650361d9)"><g clip-path="url(#d5e16dd6fe)"><g clip-path="url(#72533952d4)"><path fill="#ffffff" d="M 128.289062 229.199219 C 134.210938 233.558594 140.496094 237.773438 147.511719 239.601562 C 154.628906 241.449219 162.761719 240.640625 168.3125 235.847656 C 173.585938 231.332031 175.753906 224.269531 177.324219 217.414062 C 181.566406 199.070312 183.15625 179.164062 175.554688 161.945312 C 169.003906 147.054688 155.882812 135.515625 140.628906 129.832031 C 125.375 124.144531 108.351562 124.167969 92.753906 128.917969 C 82.476562 132.039062 72.484375 137.429688 66.097656 146.136719 C 63.917969 149.101562 62.222656 152.390625 61.773438 156.054688 C 60.84375 162.496094 63.816406 168.769531 67.414062 174.183594 C 75.796875 186.703125 87.679688 195.761719 99.128906 205.28125 C 108.929688 213.234375 118.167969 221.730469 128.289062 229.199219 Z M 128.289062 229.199219 " fill-opacity="1" fill-rule="nonzero"/></g></g></g><g clip-path="url(#1adaadf7d9)"><g clip-path="url(#4301eac7ae)"><g clip-path="url(#c717b013e0)"><path fill="#ffffff" d="M 226.71875 200.839844 C 221.527344 202.386719 215.734375 202.59375 210.714844 200.746094 C 207.128906 199.429688 203.953125 197.203125 201.015625 194.917969 C 195.789062 190.929688 190.507812 186.152344 189.234375 179.683594 C 188.414062 175.75 189.296875 171.621094 190.765625 167.84375 C 196.957031 151.242188 213.820312 143.664062 230.855469 147.734375 C 244.84375 151.050781 250.683594 170.324219 246.15625 182.746094 C 242.992188 191.367188 235.441406 198.273438 226.71875 200.839844 Z M 226.71875 200.839844 " fill-opacity="1" fill-rule="nonzero"/></g></g></g><g clip-path="url(#01951aedff)"><g clip-path="url(#67cd4fdbfe)"><g clip-path="url(#8bc2315226)"><path fill="#ffffff" d="M 224.640625 128.15625 C 216.851562 140.324219 201.316406 146.859375 186.84375 144.769531 C 181.042969 143.976562 175.242188 141.632812 171.675781 137.113281 C 167.484375 131.90625 166.984375 124.386719 168.808594 117.914062 C 170.734375 111.46875 174.683594 105.894531 178.886719 100.703125 C 183.992188 94.382812 189.8125 88.320312 197.171875 84.910156 C 224.976562 72.140625 237.273438 108.285156 224.640625 128.15625 Z M 224.640625 128.15625 " fill-opacity="1" fill-rule="nonzero"/></g></g></g><g clip-path="url(#1ff427fc33)"><g clip-path="url(#6d6027a689)"><g clip-path="url(#4d4d464571)"><path fill="#ffffff" d="M 174.21875 81.125 C 173.035156 90.828125 166.988281 99.496094 159.027344 105.210938 C 155.519531 107.671875 151.445312 109.679688 147.121094 109.753906 C 140.613281 109.695312 134.863281 105.039062 131.289062 99.519531 C 124.222656 88.609375 123.605469 73.875 129.792969 62.472656 C 132.851562 56.929688 137.558594 51.960938 143.605469 50.039062 C 161 44.125 176.175781 65.722656 174.21875 81.125 Z M 174.21875 81.125 " fill-opacity="1" fill-rule="nonzero"/></g></g></g><g clip-path="url(#d3d1cdd7e9)"><g clip-path="url(#09313093d9)"><g clip-path="url(#a2f0f62075)"><path fill="#ffffff" d="M 104.855469 119.328125 C 103.234375 121.75 101.210938 123.972656 98.527344 125.171875 C 96.074219 126.308594 93.167969 126.460938 90.457031 126.214844 C 76.144531 124.933594 64.023438 111.289062 64.546875 96.910156 C 64.695312 93.621094 65.289062 90.320312 66.175781 87.1875 C 67.734375 81.4375 69.972656 75.609375 74.390625 71.460938 C 84.882812 61.640625 100.21875 64.355469 106.464844 76.527344 C 113.183594 89.578125 113.34375 106.980469 104.855469 119.328125 Z M 104.855469 119.328125 " fill-opacity="1" fill-rule="nonzero"/></g></g></g></svg>