<?xml version="1.0" standalone="no"?>
<!DOCTYPE svg PUBLIC "-//W3C//DTD SVG 20010904//EN"
 "http://www.w3.org/TR/2001/REC-SVG-20010904/DTD/svg10.dtd">
<svg version="1.0" xmlns="http://www.w3.org/2000/svg"
 width="700.000000pt" height="700.000000pt" viewBox="0 0 700.000000 700.000000"
 preserveAspectRatio="xMidYMid meet">
<metadata>
Created by potrace 1.14, written by Peter Selinger 2001-2017
</metadata>
<g transform="translate(0.000000,700.000000) scale(0.100000,-0.100000)"
fill="#000000" stroke="none">
<path d="M3278 6995 c-2 -1 -42 -5 -89 -9 -47 -4 -96 -9 -109 -11 -12 -2 -48
-7 -79 -11 -57 -6 -76 -9 -121 -19 -34 -7 -69 -14 -105 -21 -208 -37 -555
-156 -790 -270 -179 -86 -448 -246 -555 -331 -8 -6 -51 -40 -95 -74 -353 -274
-684 -664 -902 -1064 -52 -95 -143 -280 -143 -291 0 -2 -11 -27 -24 -56 -51
-113 -131 -355 -162 -488 -21 -91 -54 -254 -59 -290 -3 -25 -8 -56 -11 -70
-34 -177 -39 -683 -8 -907 11 -85 13 -101 19 -148 4 -27 10 -66 15 -85 5 -19
12 -48 14 -65 27 -149 108 -418 184 -606 50 -125 156 -337 226 -453 36 -60 66
-111 66 -113 0 -2 5 -9 10 -16 6 -7 40 -55 76 -107 320 -458 759 -841 1264
-1102 231 -120 468 -209 735 -278 308 -79 523 -105 865 -105 236 0 359 9 523
35 40 6 83 13 97 16 133 21 350 77 510 131 560 190 1095 546 1479 982 31 35
63 71 71 80 13 14 67 82 92 116 4 6 18 24 31 40 101 129 226 331 323 525 86
173 132 281 191 455 42 126 73 233 98 348 13 57 45 237 50 282 4 28 8 61 11
75 28 160 25 652 -6 866 -19 134 -21 150 -41 244 -47 224 -95 383 -176 590
-207 527 -569 1029 -998 1385 -33 28 -62 53 -65 56 -4 5 -138 102 -270 196
-119 85 -436 250 -618 322 -238 95 -522 173 -747 207 -27 4 -57 9 -65 10 -8 2
-42 6 -76 9 -33 4 -74 8 -90 11 -33 5 -541 14 -546 9z"/>
</g>
</svg>
