<?xml version="1.0" standalone="no"?>
<!DOCTYPE svg PUBLIC "-//W3C//DTD SVG 20010904//EN"
 "http://www.w3.org/TR/2001/REC-SVG-20010904/DTD/svg10.dtd">
<svg version="1.0" xmlns="http://www.w3.org/2000/svg"
 width="800.000000pt" height="800.000000pt" viewBox="0 0 800.000000 800.000000"
 preserveAspectRatio="xMidYMid meet">
<metadata>
Created by potrace 1.14, written by Peter Selinger 2001-2017
</metadata>
<g transform="translate(0.000000,800.000000) scale(0.100000,-0.100000)"
fill="#000000" stroke="none">
<path d="M3659 7788 c-10 -4 -19 -5 -19 -1 0 3 -7 0 -15 -7 -11 -9 -15 -9 -15
-1 0 7 -4 9 -10 6 -8 -5 -48 -12 -120 -19 -15 -2 -24 -8 -22 -16 3 -11 0 -11
-12 0 -10 7 -16 8 -16 2 0 -6 5 -14 10 -17 6 -3 10 -12 10 -18 0 -7 -4 -6 -11
3 -8 12 -10 11 -7 -5 2 -11 9 -21 16 -21 6 -1 17 -2 23 -3 5 0 7 -6 3 -12 -4
-8 -9 -7 -15 2 -6 10 -9 11 -9 2 0 -7 -4 -13 -10 -13 -5 0 -9 5 -7 11 1 6 -4
14 -11 16 -8 3 -10 -1 -6 -11 3 -9 1 -16 -6 -16 -6 0 -8 5 -5 10 3 6 1 10 -4
10 -6 0 -11 -3 -11 -8 0 -4 -9 -13 -21 -20 -12 -8 -18 -9 -15 -4 7 11 -19 24
-28 15 -11 -11 -6 -24 6 -17 7 5 8 3 3 -6 -6 -10 -11 -10 -20 3 -7 9 -16 13
-21 9 -4 -4 -2 1 5 11 15 19 2 24 -17 5 -17 -17 -15 -28 6 -29 11 0 12 -2 4
-6 -18 -7 -51 25 -49 48 1 10 6 18 12 18 22 -3 36 1 31 9 -3 5 1 9 9 9 12 0
12 -3 3 -15 -10 -11 -8 -13 8 -10 10 1 22 7 26 12 3 5 14 11 22 12 16 2 20 -7
17 -34 -2 -10 2 -10 18 0 18 11 18 13 3 25 -15 13 -15 13 5 4 16 -8 22 -7 26
3 6 15 -1 26 -15 26 -5 0 -6 -4 -3 -10 3 -6 -1 -7 -9 -4 -9 3 -13 11 -9 18 4
6 -1 5 -10 -3 -9 -7 -26 -11 -36 -8 -15 4 -18 1 -13 -12 5 -14 4 -14 -13 -1
-10 8 -20 14 -22 13 -34 -23 -63 -32 -63 -21 0 9 -3 8 -10 -2 -5 -8 -10 -12
-10 -7 0 4 -16 0 -36 -8 -20 -8 -40 -13 -44 -10 -4 3 -10 -1 -13 -9 -3 -8 8
-25 26 -40 17 -14 26 -26 19 -26 -20 0 -64 51 -57 68 4 12 3 13 -9 2 -14 -10
-13 -15 1 -36 8 -13 11 -24 7 -25 -5 0 0 -5 11 -10 19 -8 19 -9 1 -6 -11 1
-20 10 -22 20 -1 10 -8 24 -14 32 -13 16 -43 8 -33 -9 4 -6 -1 -5 -10 2 -9 8
-21 10 -29 6 -14 -9 -19 -11 -44 -13 -11 -1 -14 -6 -9 -18 15 -39 15 -47 0
-20 -13 23 -20 26 -43 20 -15 -3 -32 -6 -39 -6 -7 0 -13 -4 -13 -7 0 -7 -58
-24 -72 -21 -12 2 -10 -17 2 -24 6 -3 10 0 11 7 0 7 7 0 14 -17 7 -16 17 -29
21 -27 5 2 9 -1 11 -7 1 -7 0 -8 -4 -1 -2 5 -9 7 -15 4 -5 -3 -12 3 -15 15 -3
11 -9 19 -13 16 -5 -3 -14 1 -22 8 -15 16 -83 3 -72 -14 3 -6 0 -10 -7 -8 -30
4 -50 -2 -48 -13 3 -25 -1 -38 -12 -38 -8 0 -9 4 0 13 6 8 8 17 4 20 -9 9 -45
-52 -38 -64 4 -5 1 -9 -4 -9 -6 0 -11 6 -11 14 0 8 -3 16 -7 19 -5 2 -2 2 4 1
7 -2 17 6 23 16 17 31 -2 25 -121 -36 -14 -7 -29 -11 -33 -7 -5 6 -10 -12 -7
-29 0 -5 -4 -8 -9 -8 -6 0 -10 4 -10 10 0 6 -10 5 -26 -2 -17 -8 -24 -18 -21
-30 3 -11 1 -15 -6 -11 -6 4 -8 0 -4 -10 4 -11 2 -14 -9 -10 -11 4 -12 9 -5
16 20 20 11 25 -19 14 -19 -7 -28 -17 -25 -25 4 -10 0 -12 -11 -8 -15 6 -185
-71 -192 -86 -2 -5 -10 -8 -18 -8 -9 0 -12 -5 -9 -10 4 -6 11 -7 17 -4 7 4 8
2 4 -4 -5 -9 -13 -9 -27 -2 -15 9 -24 6 -43 -12 -13 -13 -30 -24 -37 -26 -8
-2 -20 -10 -26 -19 -7 -9 -13 -13 -13 -7 0 5 -3 5 -8 -1 -4 -6 -26 -23 -49
-39 -24 -16 -43 -33 -43 -37 0 -5 -6 -8 -13 -7 -6 2 -11 -2 -10 -9 2 -8 -4
-10 -14 -6 -13 5 -15 1 -11 -19 4 -19 1 -25 -9 -21 -7 3 -10 9 -7 14 12 19
-16 8 -33 -14 -10 -13 -26 -26 -36 -30 -15 -6 -16 -10 -7 -28 7 -11 9 -23 7
-26 -3 -2 -8 5 -12 16 -8 25 -18 27 -36 5 -11 -13 -10 -15 6 -12 10 1 20 -4
22 -12 3 -9 1 -11 -4 -5 -13 16 -56 17 -50 1 3 -7 0 -19 -6 -25 -8 -8 -7 -11
4 -11 12 0 12 -2 0 -9 -8 -5 -20 -7 -27 -4 -10 4 -8 10 9 24 27 22 10 25 -21
3 -27 -18 -28 -30 -4 -36 10 -3 18 -15 19 -29 2 -18 0 -20 -7 -9 -5 8 -6 18
-3 23 3 5 -3 7 -13 5 -11 -2 -19 -9 -19 -16 0 -7 -6 -17 -14 -21 -9 -6 -11
-16 -6 -32 4 -13 4 -21 -1 -16 -4 4 -9 24 -10 45 -1 20 0 31 3 25 2 -7 10 -13
15 -13 6 0 8 3 5 7 -4 3 -2 12 4 20 15 18 -1 17 -28 -2 -14 -10 -20 -21 -16
-32 4 -11 3 -14 -6 -9 -8 5 -21 -1 -33 -14 -16 -17 -18 -24 -8 -33 10 -9 11
-9 5 2 -6 10 -4 12 4 7 7 -4 10 -2 9 5 -2 7 6 14 17 16 l20 3 -20 -9 c-12 -6
-14 -10 -6 -10 8 -1 4 -9 -12 -21 -30 -24 -41 -25 -34 -5 4 8 2 17 -3 20 -6 4
-10 -1 -10 -10 0 -10 -5 -13 -12 -9 -7 5 -8 3 -3 -7 5 -7 10 -25 11 -39 1 -14
0 -19 -3 -12 -2 6 -11 12 -18 12 -7 0 -16 6 -18 13 -3 6 -6 -3 -6 -20 -1 -18
4 -33 10 -33 6 0 8 7 5 16 -6 14 -4 15 9 4 15 -12 15 -14 0 -22 -8 -5 -13 -13
-10 -19 4 -5 -1 -12 -9 -15 -9 -3 -14 -9 -11 -13 2 -4 -1 -8 -8 -7 -15 0 -51
36 -37 36 17 0 25 -5 22 -12 -3 -10 10 -10 25 0 12 7 3 35 -11 33 -20 -3 -26
0 -20 10 4 8 9 7 15 -2 6 -10 8 -7 6 8 -1 21 -3 21 -19 6 -10 -8 -15 -20 -11
-26 4 -6 0 -8 -10 -4 -12 4 -15 1 -12 -14 3 -15 0 -19 -11 -15 -8 3 -13 2 -10
-3 3 -4 -7 -14 -22 -21 -18 -8 -22 -14 -13 -18 7 -2 17 1 20 7 5 7 15 9 26 5
12 -5 16 -4 11 4 -3 6 -2 13 3 17 6 3 15 -3 21 -14 9 -17 8 -20 -6 -14 -11 4
-15 2 -11 -4 4 -6 0 -10 -10 -9 -9 0 -18 -5 -20 -12 -3 -8 1 -10 13 -5 16 6
15 4 -2 -15 -33 -36 -43 -50 -38 -54 8 -9 -31 -5 -43 4 -7 5 -14 5 -18 -2 -3
-5 -1 -10 4 -10 6 0 11 -5 11 -11 0 -8 -5 -8 -15 1 -18 15 -20 0 -2 -20 10
-12 9 -12 -5 -1 -20 15 -23 9 -8 -19 7 -13 7 -21 -2 -26 -7 -4 -8 -3 -4 4 4 7
2 12 -5 12 -7 0 -9 3 -6 7 4 3 -1 12 -11 20 -9 8 -11 12 -5 8 9 -4 11 0 7 12
-4 12 -3 14 3 6 6 -9 12 -7 21 7 15 25 -1 35 -20 12 -27 -32 -49 -72 -39 -72
5 0 11 5 13 10 2 6 9 0 17 -12 13 -21 13 -22 -2 -9 -19 15 -24 2 -6 -16 8 -8
7 -13 -2 -18 -7 -5 -10 -4 -5 3 14 23 -10 19 -28 -5 -18 -25 -18 -25 2 -19 11
4 23 3 26 -2 3 -5 -9 -8 -27 -7 -33 3 -57 -9 -57 -28 0 -7 4 -7 12 1 7 7 17
12 22 12 6 0 3 -5 -7 -11 -9 -6 -15 -14 -13 -18 3 -4 -5 -13 -17 -20 -18 -11
-20 -11 -9 0 19 20 14 34 -6 16 -21 -20 -32 -22 -32 -6 0 5 4 8 9 5 5 -3 14 1
21 9 7 8 9 15 4 15 -5 0 -1 5 9 11 9 6 14 15 11 21 -5 7 -2 8 6 3 9 -5 11 -4
6 3 -5 8 -1 10 10 5 13 -5 16 -3 11 10 -4 11 -2 14 7 11 7 -3 16 2 19 10 4 10
1 16 -9 16 -9 0 -12 5 -8 12 4 7 3 8 -5 4 -6 -4 -9 -11 -7 -15 3 -4 -6 -18
-20 -30 -14 -12 -22 -26 -19 -31 3 -6 0 -10 -7 -10 -7 0 -24 -17 -38 -38 -14
-20 -29 -40 -35 -44 -7 -5 -7 -8 0 -8 6 0 3 -5 -5 -11 -13 -9 -12 -10 3 -5 9
3 17 1 17 -4 0 -6 -8 -10 -17 -10 -10 0 -25 -5 -33 -10 -11 -8 -9 -9 11 -6 21
3 26 1 24 -12 -2 -10 -4 -21 -5 -27 0 -5 -5 -2 -11 8 -14 24 -33 22 -19 -2 7
-15 6 -23 -5 -34 -16 -17 -10 -28 11 -20 8 3 14 1 14 -5 0 -8 -28 -9 -37 -2
-2 2 -6 3 -10 4 -5 1 -13 5 -19 9 -15 9 -25 -15 -14 -32 5 -9 10 -10 14 -2 4
6 13 11 19 11 7 0 4 -6 -5 -14 -14 -10 -15 -16 -5 -27 7 -7 0 -3 -14 9 -17 15
-29 20 -34 13 -3 -6 -4 -11 -1 -11 3 0 -6 -12 -20 -27 -23 -25 -23 -27 -8 -45
10 -10 13 -18 8 -18 -5 0 -3 -4 4 -9 8 -5 0 -8 -24 -9 -48 -2 -70 -28 -46 -57
9 -11 13 -17 8 -13 -5 4 -16 2 -25 -5 -14 -11 -14 -10 -2 6 9 11 10 17 2 17
-6 0 -11 -4 -11 -10 0 -21 -2 -25 -16 -33 -8 -5 -12 -12 -9 -18 4 -5 1 -9 -5
-9 -6 0 -8 -5 -4 -11 4 -8 9 -7 15 2 5 8 9 10 9 5 0 -5 -8 -18 -18 -29 -12
-15 -14 -21 -4 -24 6 -3 12 -10 12 -16 0 -6 -7 -4 -17 5 -13 14 -14 20 -3 32
8 11 9 16 1 16 -6 0 -13 -11 -17 -25 -3 -14 -11 -22 -17 -18 -6 3 -7 1 -3 -5
4 -7 2 -12 -4 -12 -6 0 -9 -4 -5 -9 3 -5 1 -12 -5 -16 -5 -3 -10 -15 -10 -26
0 -11 -4 -17 -10 -14 -6 4 -7 -1 -3 -11 4 -12 3 -15 -5 -10 -8 5 -10 1 -5 -10
4 -10 2 -15 -4 -11 -5 3 -10 0 -10 -8 0 -8 3 -12 7 -10 3 2 12 -1 20 -7 13 -8
12 -9 -1 -5 -22 7 -62 -21 -55 -38 3 -8 0 -16 -7 -19 -9 -3 -9 -5 0 -5 7 -1
10 -8 6 -18 -4 -11 -3 -14 5 -9 7 4 12 2 12 -3 0 -6 -5 -11 -11 -11 -5 0 -7
-5 -3 -12 4 -7 3 -8 -5 -4 -6 4 -9 11 -7 15 3 4 0 13 -6 21 -8 12 -9 12 -4 -2
3 -10 1 -20 -5 -24 -6 -3 -3 -12 8 -21 10 -8 13 -12 6 -9 -19 10 -41 -4 -46
-30 -2 -13 0 -27 6 -31 6 -4 7 -1 2 8 -5 8 -4 10 0 6 5 -4 10 -15 11 -24 2
-12 0 -13 -9 -4 -16 16 -23 14 -34 -11 -12 -27 -6 -51 9 -42 7 4 8 2 4 -5 -6
-9 -11 -9 -22 0 -12 10 -13 9 -8 -6 6 -13 4 -16 -6 -10 -8 5 -11 3 -8 -6 3 -8
11 -13 17 -11 7 1 10 -2 6 -8 -3 -6 -10 -8 -15 -5 -5 3 -12 0 -16 -6 -4 -8 -3
-9 4 -5 7 4 12 2 12 -3 0 -6 -7 -11 -15 -11 -8 0 -15 -5 -15 -11 0 -6 8 -8 18
-5 14 5 14 4 -2 -9 -11 -8 -23 -15 -27 -15 -4 0 -10 -7 -13 -16 -6 -15 -4 -15
10 -3 19 16 47 21 38 7 -3 -5 -8 -7 -11 -4 -8 8 -53 -45 -47 -55 10 -17 13
-49 3 -44 -5 4 -7 10 -4 15 3 5 0 12 -6 16 -8 4 -9 3 -5 -4 4 -7 2 -12 -5 -12
-7 0 -9 -3 -6 -6 3 -4 1 -16 -5 -28 -16 -28 -18 -46 -7 -46 5 0 9 -4 9 -10 0
-5 -7 -6 -17 -3 -11 4 -14 3 -9 -5 4 -7 1 -12 -6 -12 -7 -1 1 -7 17 -15 l30
-14 -28 4 c-15 2 -25 0 -22 -6 4 -5 2 -9 -4 -9 -5 0 -8 -8 -6 -17 1 -10 -2
-23 -7 -30 -8 -10 -31 -91 -50 -173 -1 -8 3 -14 10 -12 8 1 11 -2 7 -8 -3 -6
-10 -8 -15 -5 -13 8 -29 -72 -16 -85 6 -6 6 -10 1 -8 -6 2 -11 -1 -12 -7 -1
-5 6 -9 15 -7 14 2 15 1 2 -7 -8 -5 -17 -8 -21 -5 -15 9 -15 -45 0 -60 14 -15
14 -18 -4 -33 -18 -17 -18 -17 -5 0 10 14 10 21 2 29 -9 9 -12 9 -13 0 -1 -7
-2 -18 -3 -24 -1 -7 2 -19 7 -26 6 -7 7 -15 3 -19 -3 -3 -6 -1 -6 5 0 7 -4 12
-8 12 -10 0 -8 -42 3 -60 5 -9 4 -11 -3 -6 -7 4 -13 1 -13 -8 -4 -53 -4 -62 6
-68 6 -5 4 -8 -6 -8 -10 0 -15 -8 -14 -22 1 -13 -3 -29 -9 -37 -8 -11 -8 -15
2 -18 6 -3 9 -10 5 -16 -10 -16 -12 -38 -16 -277 -3 -139 0 -210 7 -219 8 -11
8 -13 0 -8 -8 5 -10 -16 -7 -76 3 -45 6 -99 6 -119 1 -21 4 -38 7 -38 3 0 6
-21 7 -47 2 -26 8 -50 15 -55 9 -5 9 -8 2 -8 -9 0 -9 -11 -3 -39 5 -21 10 -52
11 -70 1 -17 5 -31 8 -31 3 0 6 -10 6 -22 3 -46 13 -108 19 -118 4 -6 8 -23
11 -38 5 -29 51 -197 61 -222 3 -8 7 -28 9 -44 3 -17 8 -32 12 -35 4 -4 8 -17
10 -31 3 -26 20 -42 36 -33 5 3 6 1 2 -6 -4 -6 -12 -9 -17 -6 -12 8 -11 3 1
-30 6 -17 14 -24 22 -19 10 6 10 5 1 -7 -10 -12 -9 -21 3 -44 8 -16 16 -36 18
-44 6 -29 20 -56 35 -68 12 -10 13 -12 2 -13 -10 0 -11 -3 -2 -14 7 -8 14 -25
16 -37 3 -13 9 -25 15 -27 5 -2 10 -12 10 -22 0 -10 7 -25 15 -34 9 -8 16 -19
15 -23 0 -4 7 -16 15 -25 8 -10 10 -18 5 -18 -6 0 -4 -10 5 -23 8 -13 12 -27
8 -32 -5 -4 -2 -5 5 -1 8 5 12 0 12 -14 0 -11 7 -23 15 -26 8 -4 13 -9 10 -14
-2 -4 4 -16 15 -27 10 -12 16 -24 12 -27 -3 -4 0 -11 8 -16 8 -5 15 -15 15
-22 1 -7 7 -12 15 -10 10 2 11 0 2 -11 -9 -10 -7 -16 8 -27 10 -7 17 -17 14
-22 -3 -4 2 -8 10 -8 9 0 15 -3 14 -7 -4 -15 13 -53 23 -53 6 0 7 -4 4 -10 -3
-5 -3 -10 2 -10 4 0 14 -14 21 -30 8 -17 18 -28 23 -25 5 4 6 0 4 -8 -7 -15
29 -60 39 -50 4 4 5 1 1 -7 -3 -8 6 -27 20 -42 14 -15 25 -31 25 -35 0 -7 10
-20 71 -91 10 -12 17 -22 14 -22 -6 0 22 -35 57 -72 14 -15 24 -28 21 -28 -3
0 1 -8 10 -18 10 -10 14 -22 10 -26 -4 -4 0 -4 9 -1 9 4 19 1 24 -6 5 -8 3
-10 -6 -4 -9 5 -11 4 -6 -3 4 -7 15 -12 24 -13 10 0 12 -3 5 -6 -10 -3 -10 -7
0 -18 7 -7 14 -12 17 -10 3 2 11 -3 18 -11 7 -8 10 -14 6 -14 -4 0 4 -10 18
-23 14 -13 27 -30 30 -38 4 -12 7 -12 24 1 14 10 16 10 7 0 -10 -11 -7 -19 17
-42 17 -15 30 -32 30 -38 0 -5 9 -7 19 -5 14 2 18 -1 14 -11 -5 -15 35 -36 51
-26 5 3 6 0 2 -6 -4 -6 -14 -9 -24 -5 -11 4 -10 0 5 -11 12 -9 42 -37 67 -62
25 -25 50 -42 56 -39 6 4 9 1 8 -7 -2 -7 3 -12 10 -10 8 1 11 -2 8 -7 -4 -5 3
-16 14 -24 11 -7 17 -17 12 -22 -4 -5 -2 -6 4 -2 5 3 23 -7 38 -24 15 -16 32
-27 36 -24 5 3 11 -3 15 -14 3 -11 19 -26 35 -33 17 -7 30 -16 30 -20 0 -12
73 -58 82 -52 5 3 7 0 6 -7 -2 -7 7 -18 20 -24 12 -5 22 -13 22 -18 0 -4 10
-2 23 4 20 11 21 11 8 -4 -7 -10 -11 -18 -7 -18 3 -1 12 -2 19 -3 6 -1 11 -8
9 -15 -2 -8 3 -11 12 -8 9 4 18 2 21 -4 4 -5 11 -7 16 -4 5 4 9 -1 9 -10 0 -9
4 -14 9 -11 5 4 11 1 13 -4 2 -6 13 -12 25 -13 12 0 19 -5 17 -9 -5 -7 0 -9
21 -8 3 0 15 -9 27 -20 20 -18 39 -25 61 -21 5 1 6 -3 3 -8 -8 -12 30 -25 44
-16 6 4 9 1 8 -7 -2 -7 5 -12 14 -12 10 1 15 -2 12 -7 -3 -5 -1 -9 5 -9 5 0
22 -5 38 -12 15 -6 31 -11 36 -10 4 1 7 -3 7 -9 0 -5 4 -8 9 -4 5 3 12 1 16
-5 4 -6 11 -8 16 -5 5 4 9 1 9 -5 0 -6 5 -8 10 -5 6 4 16 2 23 -3 7 -6 21 -12
32 -14 11 -1 23 -7 26 -11 4 -5 18 -10 33 -10 14 -1 28 -8 31 -15 2 -6 14 -12
25 -12 12 0 19 -4 15 -9 -3 -5 -1 -12 5 -16 5 -3 10 2 10 12 1 17 1 17 11 0 5
-9 7 -22 4 -27 -4 -6 1 -7 12 -3 10 3 15 3 11 -1 -3 -4 12 -24 35 -44 23 -20
44 -40 45 -45 2 -4 8 -5 13 -1 5 3 9 -1 9 -9 0 -7 12 -20 28 -28 15 -8 29 -16
32 -19 12 -12 51 -30 65 -30 9 0 13 -4 10 -10 -3 -5 3 -10 13 -10 11 0 39 -7
63 -16 24 -9 76 -23 114 -31 67 -13 78 -14 108 -12 6 1 77 0 157 -1 80 -1 147
-1 150 0 3 1 23 3 46 4 22 2 49 8 61 14 11 6 23 8 27 5 3 -3 6 -1 6 6 0 7 14
17 30 22 17 6 30 14 30 19 0 4 19 1 42 -7 24 -8 58 -16 77 -19 19 -2 48 -7 65
-10 55 -10 120 -15 202 -18 44 -2 86 -6 92 -10 7 -4 12 -3 12 3 0 6 36 10 85
10 47 0 89 2 93 5 4 2 28 7 52 10 68 9 111 16 155 28 57 14 82 11 139 -17 28
-13 62 -26 76 -29 14 -3 35 -7 47 -10 13 -3 25 0 29 5 4 6 11 6 20 -2 8 -6 17
-9 21 -6 3 4 12 2 19 -4 7 -5 14 -6 17 -2 5 7 53 8 127 3 75 -6 241 34 309 74
33 19 62 32 65 29 3 -4 6 1 6 9 0 9 14 21 31 29 37 15 212 183 201 194 -4 4 2
5 13 3 14 -2 19 2 17 13 -2 12 4 16 23 14 27 -3 31 4 15 23 -7 9 -7 9 2 2 20
-17 48 -11 58 13 5 12 9 17 9 10 1 -8 7 -8 26 0 14 7 25 15 25 20 0 4 7 7 15
7 8 0 15 5 15 11 0 5 5 7 10 4 6 -3 10 -2 10 3 0 6 11 13 25 16 14 4 25 11 25
16 0 6 7 10 15 10 8 0 15 5 15 11 0 5 4 8 9 4 5 -3 15 1 23 8 7 7 27 20 45 27
17 8 29 18 27 22 -3 4 4 8 15 8 12 0 21 5 21 10 0 6 7 10 15 10 8 0 15 5 15
11 0 5 4 8 8 5 5 -3 14 4 22 14 8 10 17 17 22 14 4 -3 8 0 8 5 0 6 7 11 15 11
8 0 15 4 15 8 0 5 25 26 55 47 30 20 55 42 55 47 0 5 4 7 8 4 5 -3 21 7 38 21
16 14 39 32 51 40 13 8 20 20 16 26 -3 5 -1 7 4 4 13 -8 36 17 25 28 -4 5 -1
5 6 1 16 -9 44 12 35 27 -3 6 -1 7 5 3 6 -3 14 0 19 7 4 7 16 16 26 20 9 4 16
10 15 14 -2 4 1 10 7 13 20 10 60 53 57 61 -1 5 2 8 7 7 14 -5 92 72 85 84 -4
7 -2 8 4 4 6 -4 17 2 24 14 7 11 18 20 25 20 7 0 13 7 13 15 0 8 7 15 16 15 8
0 13 4 9 9 -3 6 3 14 12 20 10 6 14 11 8 11 -5 0 1 7 13 16 12 8 20 20 16 25
-3 5 -2 8 3 7 11 -4 53 39 46 46 -4 3 0 6 7 6 7 0 11 2 8 6 -3 3 13 25 37 48
23 24 62 69 85 100 23 31 47 56 52 56 5 0 7 4 4 9 -3 5 1 14 9 21 8 7 15 18
15 25 0 7 7 16 16 19 9 4 14 9 11 12 -3 3 3 14 14 25 10 10 19 26 19 34 0 8 4
15 9 15 5 0 16 16 25 35 9 19 21 35 26 35 6 0 9 3 8 8 -1 4 3 17 10 28 6 12 8
25 4 29 -4 5 -2 5 5 2 13 -8 67 78 58 93 -3 6 0 10 8 10 8 0 18 10 22 23 4 12
8 24 9 27 1 3 8 16 16 30 8 14 15 27 15 30 1 3 14 30 28 60 15 30 27 61 27 68
0 7 7 15 16 19 8 3 13 12 10 19 -3 7 0 19 7 26 7 7 13 22 15 32 2 11 9 29 17
40 7 12 18 39 25 61 7 22 16 45 19 50 4 6 6 20 5 33 -1 12 1 20 4 17 6 -6 51
122 52 148 0 9 4 17 9 17 5 0 12 15 16 33 4 17 9 37 11 42 3 10 10 39 21 85 3
14 6 33 7 43 0 9 3 17 6 17 4 0 7 6 8 13 2 28 12 90 17 97 2 4 7 26 10 49 3
23 9 50 14 59 4 9 7 25 6 35 -2 9 2 17 8 17 8 0 7 4 -2 9 -8 6 -10 14 -5 22
11 18 15 36 18 79 1 19 4 40 7 45 3 6 4 20 3 32 0 13 4 23 9 23 7 0 7 4 -1 12
-6 6 -8 18 -3 27 4 9 7 41 7 71 -1 30 4 58 9 62 6 5 5 8 -2 8 -9 0 -10 7 -3
26 13 32 13 37 -1 28 -8 -4 -8 -1 0 14 13 24 11 43 -4 54 -7 5 -7 8 0 8 12 0
13 60 1 79 -6 10 -6 12 2 7 16 -9 14 73 -2 93 -8 11 -8 13 2 7 8 -5 12 0 12
14 0 12 -4 18 -10 15 -6 -4 -7 2 -1 17 5 14 5 31 0 40 -6 10 -6 19 0 22 6 4 6
18 1 36 -5 18 -5 32 1 36 5 3 6 10 3 16 -3 5 -8 36 -9 68 -1 32 -6 63 -9 69
-4 6 -2 11 5 11 8 0 8 4 -1 15 -7 8 -9 15 -5 15 4 0 2 6 -4 14 -9 10 -9 16 -1
21 7 4 7 11 2 18 -5 7 -8 27 -7 45 0 17 -2 32 -6 32 -3 0 -5 10 -5 23 1 12 0
27 -3 32 -3 6 -7 19 -9 30 -5 36 -10 60 -13 60 -1 0 -2 15 -4 34 -1 19 -7 37
-13 39 -9 3 -9 9 -2 23 7 13 7 19 0 19 -5 0 -10 12 -10 26 0 14 -4 23 -8 20
-4 -2 -8 7 -7 22 0 15 -8 59 -18 97 -10 39 -20 81 -23 95 -4 22 -35 119 -51
160 -3 8 -8 24 -10 35 -2 10 -7 22 -11 25 -4 3 -9 12 -11 20 -8 37 -7 33 -28
88 -3 9 -5 20 -5 25 1 4 -3 7 -9 7 -5 0 -8 4 -5 8 3 5 -2 21 -10 37 -8 15 -12
30 -10 32 2 3 -3 13 -12 23 -8 11 -17 25 -18 32 -4 30 -104 240 -119 250 -5 4
-6 8 -1 8 5 0 4 6 -2 13 -6 6 -10 15 -9 19 1 4 -7 18 -18 30 -10 13 -18 23
-16 23 1 0 -4 15 -12 33 -7 18 -16 29 -20 25 -4 -3 -7 1 -7 11 0 9 -8 29 -19
44 -29 43 -55 87 -53 90 5 6 -24 30 -30 25 -4 -2 -5 3 -2 11 3 9 1 16 -5 16
-6 0 -11 5 -11 10 0 18 -57 90 -65 82 -5 -4 -5 -1 -1 6 5 8 0 20 -12 31 -12 9
-22 24 -24 32 -2 8 -13 23 -24 34 -12 11 -46 54 -77 95 -30 41 -64 85 -76 97
-12 12 -21 27 -21 33 0 5 -10 10 -22 11 -13 0 -18 3 -11 5 8 4 -1 17 -22 37
-19 18 -35 38 -35 44 0 7 -3 12 -8 11 -4 -2 -45 34 -92 80 -46 45 -88 82 -93
82 -4 0 -5 5 -2 10 3 6 0 10 -7 10 -7 1 -31 19 -53 40 -22 22 -44 40 -50 40
-6 0 -16 9 -23 20 -7 11 -19 20 -28 20 -8 0 -12 5 -9 10 3 6 -1 10 -9 10 -9 0
-16 4 -16 8 0 5 -32 31 -71 58 -39 27 -76 54 -82 60 -7 5 -31 21 -54 34 -24
13 -43 28 -43 33 0 5 -6 7 -13 4 -8 -3 -20 3 -28 14 -7 10 -21 19 -31 19 -10
0 -18 5 -18 12 0 6 -3 9 -6 5 -3 -3 -15 3 -27 14 -23 21 -42 26 -31 7 4 -8 3
-10 -2 -5 -5 5 -9 14 -9 20 0 7 -7 12 -15 12 -8 0 -19 6 -23 13 -5 7 -12 10
-16 7 -5 -2 -14 2 -21 9 -6 8 -20 13 -30 11 -11 -2 -19 1 -17 8 1 6 -8 13 -20
15 -13 2 -23 8 -23 13 0 5 -9 9 -20 9 -11 0 -20 5 -20 11 0 8 -4 8 -14 0 -10
-9 -17 -7 -27 6 -13 16 -12 17 4 4 9 -7 17 -9 17 -3 0 15 -32 24 -41 11 -4 -8
-9 -4 -14 10 -5 18 -9 20 -21 10 -12 -10 -15 -10 -12 2 2 9 -4 13 -16 11 -11
-2 -15 1 -11 7 6 10 -7 16 -28 12 -4 -1 -15 5 -23 14 -12 12 -20 13 -37 3 -21
-11 -21 -10 -7 7 8 10 10 16 3 12 -6 -4 -14 -1 -16 5 -4 9 -6 9 -6 -1 -1 -12
-3 -12 -13 1 -16 21 -64 28 -60 10 1 -8 -2 -11 -7 -7 -6 3 -8 12 -5 19 4 11
-28 28 -51 26 -3 0 -19 7 -36 15 -17 9 -44 17 -59 17 -16 1 -28 6 -27 12 1 6
-8 10 -20 8 -12 -2 -24 2 -28 8 -5 8 -14 6 -28 -7 -19 -16 -20 -16 -8 0 12 15
11 17 -8 17 -11 0 -21 6 -21 13 0 8 -4 7 -10 -3 -7 -11 -10 -11 -10 -2 0 7 -4
11 -9 7 -5 -3 -12 -1 -16 5 -3 5 -11 10 -17 10 -6 0 -5 -7 3 -17 13 -15 12
-15 -8 -3 -12 8 -20 17 -18 20 4 7 -3 9 -47 13 -14 1 -30 5 -34 9 -4 4 -14 2
-22 -5 -13 -9 -14 -9 -8 1 7 12 0 15 -36 15 -10 0 -18 4 -18 10 0 5 -8 3 -17
-4 -11 -10 -14 -10 -9 -1 4 6 5 12 3 12 -2 0 -28 5 -57 10 -37 7 -57 7 -66 -1
-9 -7 -15 -6 -21 4 -11 20 -35 26 -57 15 -13 -7 -16 -7 -12 1 5 7 -2 11 -16
12 -13 0 -32 2 -43 5 -11 2 -50 5 -86 6 -37 2 -65 6 -63 9 5 9 -733 6 -757 -3z
m115 -9 c-2 -4 5 -14 16 -24 11 -10 20 -13 20 -7 0 6 -4 14 -10 17 -24 15 -5
22 60 21 39 0 70 -4 70 -9 0 -5 -9 -6 -19 -2 -11 3 -23 0 -27 -6 -5 -8 -2 -10
8 -6 9 3 24 -1 35 -9 17 -14 17 -15 -3 -5 -12 6 -24 8 -27 5 -3 -3 -12 -2 -19
2 -7 5 -25 9 -41 10 -23 1 -25 -1 -16 -13 7 -7 19 -11 27 -8 8 3 21 0 28 -6 7
-6 17 -8 22 -5 5 3 9 -1 9 -9 0 -11 -4 -12 -21 -2 -24 13 -47 10 -59 -6 -6 -8
-7 -5 -3 6 7 22 -8 22 -30 0 -16 -16 -16 -16 -9 7 7 22 6 23 -8 11 -9 -7 -14
-18 -10 -25 4 -6 -2 -4 -12 4 -17 14 -18 13 -12 -5 7 -19 6 -19 -7 -2 -11 15
-15 15 -19 3 -3 -9 -16 -13 -31 -12 -14 2 -26 -1 -26 -7 0 -6 -6 -2 -14 9 -11
14 -11 21 -3 26 9 6 9 8 0 8 -19 0 -26 -19 -13 -35 10 -12 8 -13 -12 -9 -59
15 -105 4 -90 -21 3 -5 -2 -4 -11 4 -13 11 -17 11 -17 1 0 -8 -3 -10 -6 -7 -4
4 -1 14 7 23 11 13 11 15 -2 14 -29 -5 -37 1 -35 23 1 17 7 23 26 24 14 0 35
3 48 6 13 4 20 2 17 -4 -4 -5 -1 -9 4 -9 6 0 11 6 11 13 0 8 3 7 9 -3 6 -8 7
-18 5 -22 -3 -4 5 -8 17 -8 21 0 22 1 4 20 -10 11 -13 20 -7 20 7 0 12 -6 12
-12 0 -8 5 -6 10 4 6 9 19 15 30 13 11 -2 22 -1 24 3 3 4 27 8 54 7 28 0 48
-3 46 -6z m177 -12 c-10 -9 -11 -8 -5 6 3 10 9 15 12 12 3 -3 0 -11 -7 -18z
m74 13 c-3 -5 -12 -10 -18 -10 -7 0 -6 4 3 10 19 12 23 12 15 0z m65 -11 c0
-4 -6 -11 -12 -15 -7 -4 -10 -4 -6 1 4 4 0 14 -10 21 -15 12 -15 12 6 7 12 -3
22 -9 22 -14z m55 -9 c1 -14 -2 -17 -10 -10 -7 5 -14 8 -17 5 -2 -3 -5 1 -5 9
0 8 6 12 15 8 11 -4 13 -1 7 9 -4 8 -4 11 0 6 5 -4 9 -16 10 -27z m100 12 c-3
-3 -11 0 -18 7 -9 10 -8 11 6 5 10 -3 15 -9 12 -12z m-268 -10 c-10 -10 -14
-22 -10 -25 3 -4 1 -7 -5 -7 -7 0 -12 2 -12 5 0 11 25 45 34 45 5 0 2 -8 -7
-18z m226 4 c3 3 4 -1 3 -10 -1 -8 -5 -18 -9 -21 -4 -3 -5 -2 -2 2 3 3 -3 16
-12 27 -14 15 -14 18 -2 8 9 -6 18 -9 22 -6z m262 -6 c3 -5 1 -10 -4 -10 -6 0
-11 5 -11 10 0 6 2 10 4 10 3 0 8 -4 11 -10z m-455 -4 c0 -2 -7 -9 -15 -16
-13 -11 -14 -10 -9 4 5 14 24 23 24 12z m43 -13 c-7 -2 -19 -2 -25 0 -7 3 -2
5 12 5 14 0 19 -2 13 -5z m457 3 c0 -2 -7 -7 -16 -10 -8 -3 -12 -2 -9 4 6 10
25 14 25 6z m-470 -22 c0 -8 -19 -13 -24 -6 -3 5 1 9 9 9 8 0 15 -2 15 -3z
m245 -4 c3 -5 1 -10 -4 -10 -6 0 -11 5 -11 10 0 6 2 10 4 10 3 0 8 -4 11 -10z
m309 2 c3 -5 -1 -9 -9 -9 -8 0 -12 4 -9 9 3 4 7 8 9 8 2 0 6 -4 9 -8z m151 -2
c3 -5 1 -10 -4 -10 -6 0 -11 5 -11 10 0 6 2 10 4 10 3 0 8 -4 11 -10z m65 0
c0 -5 -2 -10 -4 -10 -3 0 -8 5 -11 10 -3 6 -1 10 4 10 6 0 11 -4 11 -10z
m-1585 -28 c-3 -8 5 -27 17 -41 13 -14 16 -20 7 -13 -9 6 -20 8 -24 4 -5 -4
-5 -1 0 7 6 10 2 12 -14 6 -20 -6 -26 2 -22 28 0 4 -3 7 -8 7 -18 0 -20 -17
-6 -36 23 -31 17 -39 -6 -10 -20 25 -20 29 -6 43 15 15 42 9 32 -7 -3 -5 0
-12 6 -16 8 -5 10 1 7 18 -3 17 0 25 9 25 8 0 11 -6 8 -15z m1705 -27 c0 -7
-30 -13 -34 -7 -3 4 4 9 15 9 10 1 19 0 19 -2z m-1856 -37 c-9 -15 -44 -29
-44 -18 0 5 7 10 15 10 8 0 14 3 14 8 -1 4 -1 14 0 22 1 13 3 13 10 0 6 -8 7
-18 5 -22z m-91 7 c-3 -10 -1 -15 8 -13 7 2 14 -5 15 -15 1 -12 0 -13 -3 -2
-2 8 -8 13 -13 10 -11 -7 -23 12 -15 25 10 15 15 12 8 -5z m47 5 c0 -5 -4 -10
-10 -10 -5 0 -10 5 -10 10 0 6 5 10 10 10 6 0 10 -4 10 -10z m-140 -41 c13 -9
13 -10 -2 -6 -25 9 -31 -6 -7 -18 19 -11 19 -13 5 -18 -10 -4 -15 -3 -12 2 3
5 -1 11 -9 15 -8 3 -12 12 -9 21 7 18 14 19 34 4z m38 -9 c-7 -10 -14 -18 -15
-16 -6 6 9 36 18 36 5 0 4 -9 -3 -20z m166 12 c3 -5 -1 -9 -9 -9 -8 0 -15 4
-15 9 0 4 4 8 9 8 6 0 12 -4 15 -8z m-124 -29 c0 -3 -7 -2 -16 1 -11 4 -15 2
-11 -7 3 -8 -1 -14 -8 -14 -10 0 -11 5 -4 18 8 16 39 17 39 2z m64 9 c3 -5 -1
-9 -9 -9 -8 0 -12 4 -9 9 3 4 7 8 9 8 2 0 6 -4 9 -8z m2261 -2 c-3 -5 -12 -10
-18 -10 -7 0 -6 4 3 10 19 12 23 12 15 0z m-2444 -17 c13 -16 12 -17 -3 -4
-10 7 -18 15 -18 17 0 8 8 3 21 -13z m2276 4 c0 -8 -6 -14 -14 -14 -9 0 -10 4
-2 14 6 7 12 13 14 13 1 0 2 -6 2 -13z m-2362 -7 c17 -7 17 -9 3 -9 -10 -1
-18 -6 -18 -12 0 -6 -7 -8 -16 -5 -12 4 -15 2 -10 -9 3 -8 1 -15 -5 -15 -15 0
-6 35 9 36 25 3 27 5 12 14 -18 12 -2 12 25 0z m45 -35 c14 -19 14 -19 -2 -6
-10 7 -18 18 -18 24 0 6 1 8 3 6 1 -2 9 -13 17 -24z m100 21 c0 -3 -4 -8 -10
-11 -5 -3 -10 -1 -10 4 0 6 5 11 10 11 6 0 10 -2 10 -4z m2370 -6 c8 -5 11
-10 5 -10 -5 0 -17 5 -25 10 -8 5 -10 10 -5 10 6 0 17 -5 25 -10z m-2489 -27
c13 -16 12 -17 -2 -5 -14 10 -18 10 -23 -3 -3 -9 -10 -14 -15 -11 -5 4 -12 1
-14 -4 -3 -6 -4 -5 -2 2 1 7 8 12 14 11 6 -2 11 4 11 12 0 20 14 19 31 -2z
m-91 -7 c0 -2 -8 -10 -17 -17 -16 -13 -17 -12 -4 4 13 16 21 21 21 13z m2730
-6 c0 -5 -5 -10 -11 -10 -5 0 -7 5 -4 10 3 6 8 10 11 10 2 0 4 -4 4 -10z
m-2710 -4 c0 -2 -8 -10 -17 -17 -16 -13 -17 -12 -4 4 13 16 21 21 21 13z
m-150 -27 c0 -6 -4 -7 -10 -4 -5 3 -10 11 -10 16 0 6 5 7 10 4 6 -3 10 -11 10
-16z m2900 11 c0 -5 -5 -10 -11 -10 -5 0 -7 5 -4 10 3 6 8 10 11 10 2 0 4 -4
4 -10z m-2934 -16 c18 -15 18 -15 -3 -5 -28 14 -36 14 -27 -1 4 -7 3 -8 -5 -4
-11 7 -6 26 8 26 4 0 16 -7 27 -16z m149 -4 c3 -6 -1 -7 -9 -4 -18 7 -21 14
-7 14 6 0 13 -4 16 -10z m-95 -18 c0 -4 -12 -8 -27 -9 -24 -1 -25 -1 -8 7 26
11 35 12 35 2z m40 4 c0 -2 -7 -7 -16 -10 -8 -3 -12 -2 -9 4 6 10 25 14 25 6z
m2895 -14 c-3 -3 -11 0 -18 7 -9 10 -8 11 6 5 10 -3 15 -9 12 -12z m-3061 -14
c-5 -8 -2 -9 9 -5 23 9 21 0 -2 -13 -16 -8 -19 -7 -16 8 5 23 4 22 11 22 3 0
2 -5 -2 -12z m-34 -24 c0 -2 -9 0 -20 6 -11 6 -20 13 -20 16 0 2 9 0 20 -6 11
-6 20 -13 20 -16z m-75 -34 c3 -6 -1 -7 -9 -4 -18 7 -21 14 -7 14 6 0 13 -4
16 -10z m-101 -25 c-7 -16 -24 -21 -24 -6 0 8 7 13 27 20 1 1 0 -6 -3 -14z
m79 -1 c-6 -17 -31 -25 -38 -13 -4 5 -3 9 2 8 20 -3 27 2 13 11 -12 7 -10 9 7
8 12 -1 19 -7 16 -14z m-118 -14 c-3 -5 -12 -10 -18 -10 -7 0 -6 4 3 10 19 12
23 12 15 0z m71 -26 c1 -9 -1 -13 -4 -9 -4 4 -7 10 -7 13 0 4 -4 14 -9 22 -7
12 -6 13 4 3 8 -7 15 -20 16 -29z m-139 -26 c-3 -8 -6 -5 -6 6 -1 11 2 17 5
13 3 -3 4 -12 1 -19z m33 7 c0 -8 -2 -15 -4 -15 -2 0 -6 7 -10 15 -3 8 -1 15
4 15 6 0 10 -7 10 -15z m65 6 c3 -5 0 -13 -6 -17 -7 -4 -9 -3 -5 4 3 5 0 13
-6 15 -9 4 -10 6 -1 6 6 1 14 -3 18 -8z m-175 -41 c0 -5 -4 -10 -10 -10 -5 0
-10 5 -10 10 0 6 5 10 10 10 6 0 10 -4 10 -10z m63 -33 c4 3 7 4 7 0 0 -18
-21 -14 -30 5 -10 21 -10 21 3 6 8 -10 17 -15 20 -11z m-108 -6 c3 -5 2 -12
-3 -15 -5 -3 -9 1 -9 9 0 17 3 19 12 6z m35 -15 c0 -2 -8 -10 -17 -17 -16 -13
-17 -12 -4 4 13 16 21 21 21 13z m24 -5 c3 -5 -2 -15 -12 -22 -15 -12 -16 -12
-5 2 7 9 10 19 6 22 -3 4 -4 7 0 7 3 0 8 -4 11 -9z m-93 -18 c13 -16 12 -17
-3 -4 -10 7 -18 15 -18 17 0 8 8 3 21 -13z m-28 -11 c14 -15 14 -19 3 -19 -8
0 -14 5 -13 11 1 6 -4 10 -11 8 -8 -1 -11 2 -7 8 8 13 9 13 28 -8z m52 -12
c-3 -5 -12 -10 -18 -10 -7 0 -6 4 3 10 19 12 23 12 15 0z m-112 -15 c-3 -9 -8
-14 -10 -11 -3 3 -2 9 2 15 9 16 15 13 8 -4z m12 -43 c-3 -3 -11 0 -18 7 -9
10 -8 11 6 5 10 -3 15 -9 12 -12z m30 9 c3 -5 2 -12 -3 -15 -5 -3 -9 1 -9 9 0
17 3 19 12 6z m-145 -51 c8 -5 11 -10 5 -10 -5 0 -17 5 -25 10 -8 5 -10 10 -5
10 6 0 17 -5 25 -10z m50 0 c0 -5 -2 -10 -4 -10 -3 0 -8 5 -11 10 -3 6 -1 10
4 10 6 0 11 -4 11 -10z m-78 -17 c-6 -2 -10 -8 -7 -13 3 -4 -2 -11 -10 -14
-13 -4 -14 -2 -5 14 6 11 16 20 23 19 9 0 9 -2 -1 -6z m2 -62 c-8 -8 -43 -8
-38 0 2 4 13 7 24 6 10 -1 17 -3 14 -6z m-91 -16 c-3 -9 -8 -14 -10 -11 -3 3
-2 9 2 15 9 16 15 13 8 -4z m41 -11 c3 -8 2 -12 -4 -9 -6 3 -10 10 -10 16 0
14 7 11 14 -7z m-20 -10 c3 -8 2 -12 -4 -9 -6 3 -10 10 -10 16 0 14 7 11 14
-7z m-38 -39 c1 -8 -3 -18 -8 -22 -7 -3 -8 -1 -4 5 4 7 1 12 -6 13 -10 0 -10
2 0 6 6 2 9 10 5 16 -3 7 -2 8 2 4 5 -4 10 -14 11 -22z m-60 -24 c-4 -5 -1
-11 6 -13 7 -3 2 -7 -10 -10 -12 -4 -25 -1 -29 4 -3 6 -1 8 4 5 6 -4 13 0 17
8 3 8 8 15 11 15 4 0 4 -4 1 -9z m-52 -58 c4 -10 4 -14 0 -10 -9 9 -35 -13
-29 -23 3 -5 2 -11 -3 -14 -15 -9 -9 27 7 45 9 9 17 18 17 18 1 1 5 -7 8 -16z
m-54 -37 c0 -2 -7 -6 -15 -10 -8 -3 -15 -1 -15 4 0 6 7 10 15 10 8 0 15 -2 15
-4z m-157 -191 c-3 -9 -8 -14 -10 -11 -3 3 -2 9 2 15 9 16 15 13 8 -4z m-53
-60 c0 -2 -10 -9 -22 -15 -22 -11 -22 -10 -4 4 21 17 26 19 26 11z m-238 -199
c6 4 6 -1 -1 -13 -6 -11 -7 -23 -4 -27 3 -3 1 -6 -6 -6 -8 0 -10 7 -6 21 5 14
4 19 -4 15 -7 -5 -8 -1 -4 10 4 11 8 13 11 6 2 -7 8 -9 14 -6z m68 10 c0 -2
-7 -7 -16 -10 -8 -3 -12 -2 -9 4 6 10 25 14 25 6z m-36 -25 c3 -5 -1 -11 -9
-14 -9 -4 -12 -1 -8 9 6 16 10 17 17 5z m-21 -46 c-3 -9 -8 -14 -10 -11 -3 3
-2 9 2 15 9 16 15 13 8 -4z m-27 -37 c4 -7 3 -8 -4 -4 -7 4 -12 2 -12 -5 0 -7
-3 -10 -6 -6 -6 5 3 27 11 27 2 0 7 -5 11 -12z m-31 -28 c3 -5 1 -10 -4 -10
-6 0 -11 5 -11 10 0 6 2 10 4 10 3 0 8 -4 11 -10z m-90 -90 c3 -6 -1 -7 -10
-4 -12 5 -14 2 -8 -12 6 -16 5 -17 -9 -4 -11 11 -12 17 -4 22 15 10 24 10 31
-2z m35 -14 c0 -3 -4 -8 -10 -11 -5 -3 -10 -1 -10 4 0 6 5 11 10 11 6 0 10 -2
10 -4z m-70 -10 c0 -2 -7 -7 -16 -10 -8 -3 -12 -2 -9 4 6 10 25 14 25 6z m31
-19 c-10 -9 -11 -8 -5 6 3 10 9 15 12 12 3 -3 0 -11 -7 -18z m-61 -62 c0 -7
-30 -13 -34 -7 -3 4 4 9 15 9 10 1 19 0 19 -2z m40 -11 c0 -8 -19 -13 -24 -6
-3 5 1 9 9 9 8 0 15 -2 15 -3z m-70 -14 c8 -5 12 -11 10 -14 -3 -2 -14 2 -24
10 -22 15 -10 19 14 4z m5 -50 c-1 -11 -5 -23 -10 -27 -4 -5 -5 -3 -1 4 3 6 2
14 -3 17 -13 8 -42 -4 -35 -15 3 -5 -3 -6 -13 -2 -14 5 -10 10 22 25 22 9 40
18 41 18 0 0 0 -9 -1 -20z m-111 -134 c-10 -8 -20 -19 -20 -25 -1 -6 -2 -15
-3 -21 0 -5 -6 -10 -12 -10 -6 0 -7 5 -2 13 4 6 8 18 10 26 1 8 8 18 15 22 7
5 9 9 5 9 -5 0 -5 5 -1 11 4 8 9 8 17 0 8 -8 5 -15 -9 -25z m56 10 c0 -2 -8
-10 -17 -17 -16 -13 -17 -12 -4 4 13 16 21 21 21 13z m-47 -31 c-3 -9 -8 -14
-10 -11 -3 3 -2 9 2 15 9 16 15 13 8 -4z m7 -39 c0 -2 -9 -6 -20 -9 -11 -3
-18 -1 -14 4 5 9 34 13 34 5z m-50 -31 c11 -13 10 -14 -4 -9 -9 3 -16 10 -16
15 0 13 6 11 20 -6z m-26 -52 c4 -11 1 -11 -15 -2 -19 9 -20 8 -14 -10 3 -12
2 -21 -3 -21 -7 0 -10 41 -3 46 9 6 31 -2 35 -13z m-10 -59 c3 -8 2 -12 -4 -9
-6 3 -10 10 -10 16 0 14 7 11 14 -7z m-64 -64 c0 -5 -5 -10 -11 -10 -5 0 -7 5
-4 10 3 6 8 10 11 10 2 0 4 -4 4 -10z m50 6 c0 -3 -4 -8 -10 -11 -5 -3 -10 -1
-10 4 0 6 5 11 10 11 6 0 10 -2 10 -4z m-26 -25 c3 -5 -2 -15 -12 -22 -15 -12
-16 -12 -5 2 7 9 10 19 6 22 -3 4 -4 7 0 7 3 0 8 -4 11 -9z m-59 -60 c-3 -5 3
-12 12 -14 10 -3 6 -4 -8 -4 -18 1 -25 6 -22 14 3 7 9 13 15 13 5 0 7 -4 3 -9z
m-81 -222 c-3 -5 -10 -7 -15 -3 -5 3 -7 10 -3 15 3 5 10 7 15 3 5 -3 7 -10 3
-15z m-42 -72 c-7 -8 -9 -17 -5 -20 3 -4 12 1 20 11 13 15 13 15 3 -6 -9 -18
-14 -21 -25 -12 -11 9 -12 16 -2 30 6 11 13 17 16 15 2 -3 -1 -11 -7 -18z m58
-43 c0 -8 -19 -13 -24 -6 -3 5 1 9 9 9 8 0 15 -2 15 -3z m-50 -19 c0 -8 -4
-15 -10 -15 -5 0 -7 7 -4 15 4 8 8 15 10 15 2 0 4 -7 4 -15z m-30 -49 c0 -2
-8 -10 -17 -17 -16 -13 -17 -12 -4 4 13 16 21 21 21 13z m-3 -37 c-26 -15 -21
-32 6 -19 21 10 21 10 3 -4 -10 -8 -16 -18 -13 -23 3 -4 -6 -9 -19 -9 -22 -2
-23 -1 -8 10 12 9 14 15 5 20 -8 5 -4 13 11 26 13 10 25 16 28 13 3 -2 -3 -9
-13 -14z m-10 -76 c-4 -3 1 -11 10 -18 13 -9 13 -14 3 -20 -8 -5 -11 -4 -7 2
4 6 0 13 -8 17 -18 6 -20 26 -3 26 6 0 8 -3 5 -7z m-21 -59 c-3 -8 -10 -12
-16 -9 -5 3 -10 -3 -10 -14 0 -14 5 -19 19 -16 14 3 18 -1 14 -12 -4 -10 -8
-11 -13 -3 -4 6 -11 11 -16 11 -5 -1 -9 12 -10 29 -1 24 2 28 13 19 10 -9 13
-6 14 12 0 13 3 18 6 11 3 -7 2 -20 -1 -28z m-26 -84 c-6 -11 -18 -20 -28 -19
-14 0 -14 2 -2 6 8 3 19 12 23 19 13 22 19 16 7 -6z m-26 -46 c3 -8 2 -12 -4
-9 -6 3 -10 10 -10 16 0 14 7 11 14 -7z m-18 -172 c-17 -16 -18 -16 -5 5 7 12
15 20 18 17 3 -2 -3 -12 -13 -22z m7 -57 c4 3 5 2 2 -2 -3 -4 -13 -8 -21 -9
-9 -1 -13 0 -10 3 3 4 0 13 -6 22 -10 12 -7 12 8 -2 11 -9 24 -15 27 -12z
m-33 -125 c0 -5 -2 -10 -4 -10 -3 0 -8 5 -11 10 -3 6 -1 10 4 10 6 0 11 -4 11
-10z m18 -985 c-3 -3 -9 2 -12 12 -6 14 -5 15 5 6 7 -7 10 -15 7 -18z m83
-232 c13 -16 12 -17 -3 -4 -10 7 -18 15 -18 17 0 8 8 3 21 -13z m99 -479 c0
-8 -19 -13 -24 -6 -3 5 1 9 9 9 8 0 15 -2 15 -3z m55 -33 c3 -5 2 -12 -3 -15
-5 -3 -9 1 -9 9 0 17 3 19 12 6z m543 -1021 c-7 -10 -14 -17 -17 -15 -4 4 18
35 25 35 2 0 -1 -9 -8 -20z m5582 -324 c0 -2 -7 -7 -16 -10 -8 -3 -12 -2 -9 4
6 10 25 14 25 6z m-4205 -695 c3 -5 2 -12 -3 -15 -5 -3 -9 1 -9 9 0 17 3 19
12 6z m82 -38 c0 -9 -4 -10 -14 -2 -7 6 -13 12 -13 14 0 1 6 2 13 2 8 0 14 -6
14 -14z"/>
<path d="M3686 7768 c4 -6 -7 -7 -24 -5 -19 3 -32 0 -36 -8 -2 -7 3 -12 12
-11 11 1 16 -6 15 -19 -2 -18 -1 -18 9 3 12 23 28 30 28 11 0 -5 4 -7 10 -4 6
3 7 -1 4 -12 -5 -17 -5 -17 6 0 13 20 4 41 -13 31 -7 -4 -8 -3 -4 1 9 11 37
16 36 7 -1 -4 -1 -14 0 -22 1 -13 3 -13 10 0 6 8 7 18 4 24 -3 5 -1 6 5 2 6
-4 8 -14 5 -24 -6 -15 -5 -15 11 -3 11 9 13 18 7 24 -13 13 -92 17 -85 5z"/>
<path d="M3503 7741 c-18 -10 -30 -21 -26 -25 3 -3 12 -1 20 5 13 11 19 1 14
-25 -1 -5 5 -4 13 4 17 13 22 35 7 25 -5 -3 -13 0 -17 6 -4 8 -3 9 4 5 7 -4
12 -1 13 6 0 7 5 3 11 -10 13 -26 30 -25 34 2 2 14 0 16 -8 8 -8 -8 -14 -8
-22 2 -9 12 -16 11 -43 -3z"/>
<path d="M3670 7720 c0 -5 5 -10 10 -10 6 0 10 5 10 10 0 6 -4 10 -10 10 -5 0
-10 -4 -10 -10z"/>
<path d="M3590 7716 c0 -2 7 -7 16 -10 8 -3 12 -2 9 4 -6 10 -25 14 -25 6z"/>
<path d="M3345 7710 c5 -9 -6 -14 -26 -12 -3 1 -6 -6 -6 -14 0 -10 4 -11 10
-5 7 7 17 6 31 -1 18 -10 19 -9 8 4 -10 13 -10 17 0 20 8 3 6 7 -6 11 -10 4
-15 3 -11 -3z"/>
<path d="M3260 7690 c-8 -5 -11 -12 -7 -16 4 -4 15 0 24 9 18 18 8 23 -17 7z"/>
<path d="M1430 6769 c0 -5 5 -7 10 -4 6 3 10 8 10 11 0 2 -4 4 -10 4 -5 0 -10
-5 -10 -11z"/>
<path d="M1310 6625 c-7 -8 -16 -12 -21 -9 -14 8 -58 -29 -59 -50 0 -11 3 -16
6 -13 4 3 15 2 25 -3 14 -8 22 -4 38 16 11 15 18 31 15 36 -3 5 0 15 6 23 7 8
10 15 7 15 -2 0 -10 -7 -17 -15z m-17 -21 c12 -12 -12 -42 -30 -39 -10 2 -20
4 -22 4 -6 1 31 41 39 41 4 0 10 -3 13 -6z"/>
<path d="M1261 6587 c-8 -10 -7 -14 4 -14 8 0 12 4 9 8 -2 4 2 10 8 12 8 4 9
6 2 6 -6 1 -17 -5 -23 -12z"/>
<path d="M941 6224 c1 -5 -1 -17 -6 -27 -11 -26 -1 -30 19 -8 15 16 15 19 1
31 -9 7 -15 9 -14 4z"/>
<path d="M825 6041 c-7 -12 12 -24 25 -16 11 7 4 25 -10 25 -5 0 -11 -4 -15
-9z"/>
</g>
</svg>
